<svg width="1146" height="1781" fill="none" xmlns="http://www.w3.org/2000/svg"><g opacity=".7" fill-rule="evenodd" clip-rule="evenodd" fill="#EEE"><path d="M1054.35 172.504c-.47 1.4 0 0 0 .933.46-.466.46-1.399 1.4-2.332 0 0 .46-.467 0-.933-.47.466 0-.933-.47.466-.46.467-.47 1.4-.93 1.866zm-18.21 54.582s.47-.467 0-.933v.933zm36.42-110.096s.46-.467 0-.933c0 0-.47.467 0 .933l-.47.467.47-.467zm-25.68 74.175c.47-.466-.47.467-.93.933-1.87 4.666.93 0 .93-.933zm15.87-51.315c1.4-.467 2.34-3.266.47-1.4 0 0 0 .933-.47 1.4zm-35.01 109.628s.46-.466 0-.933c.46.467.46.467 0 .933 0 0-.47.467 0 .933v-.933zm9.8-34.987c-.93 1.866-.46 2.333 0 .933 1.4-2.333 1.87-5.598.47-2.332 0 0 0 .933-.47 1.399zm16.81-54.115c-.93 1.867-.47 2.333.47.467 1.4-2.333 2.33-5.132 0-1.866 0 0 0 .933-.47 1.399zm-34.08 113.361s-.47.466 0 .933c-.47-.467-.47-.467 0-.933zm50.42-168.874s.47-.467 0-.933c0 0 .47.466 0 .933-.46.466-.46.466-.93.933.47-.467.93-.933.93-.933zm-25.21 76.507c-.46 1.399 0 1.866.47.466 1.87-2.799 2.8-6.531.93-3.732 0 .933-.46 2.333-1.4 3.266zm-15.87 56.913c1.86-2.799 2.8-7.464 1.4-4.199-1.4 2.333-2.34 5.132-1.4 4.199zm-16.35 62.044s-.47.467 0 .933c-.47-.466-.47-.466 0-.933zm49.5-175.404c.47-.467-.47.467-.93.933-2.8 5.599 1.86 0 .93-.933zm-24.75 78.839c.94-1.866 1.87-4.665 2.34-6.064 0-2.799-6.54 13.062-2.34 6.064zm15.41-54.58c1.87-2.8 2.34-4.199 1.87-4.665 0-2.799-6.07 10.73-1.87 4.665zm-31.28 112.426c.93-2.799 2.33-6.997.93-3.732-.93 2.799-2.33 6.998-.93 3.732zm45.76-169.805s.47-.467 0-.933v.933c-.47.466-.47.466-.93.933.93 0 .46-.467.93-.933zm-35.02 127.354c.46-2.332-.94 0-2.34 3.266-3.73 9.33 1.4 2.332 2.34-3.266zm12.14-47.583c1.4-1.399 2.33-4.198 2.8-5.598 0-.933-.47-1.399-1.4.467-3.27 3.266-4.2 8.864-1.4 5.131zm-29.89 116.625c1.4-3.266 2.34-7.931 1.4-5.132-1.4 3.266-2.33 6.065-1.4 5.132zm42.5-172.137c-.93 1.866-.47 2.332.93.932 1.4-2.332 1.87-5.598-.46-2.332.46.466 0 .933-.47 1.4zm-20.08 76.039c1.4-2.333 2.8-4.666 3.27-6.998.46-1.4-.47-1.399-1.4.467-4.2 4.199-5.14 10.73-1.87 6.531zm-12.61 51.781c0-.933.93-3.732.47-3.265.46-1.4-.94 0-1.87 2.799-3.27 7.931-1.87 9.33 1.4.466zm25.69-104.962c1.86-1.866 2.33-4.198 2.33-5.131-.46-5.131-7.93 11.664-2.33 5.131zm-41.57 174.003c0 2.799-.47 2.333 0 0 .93-1.866 1.4-6.064.47-2.332 0 .933 0 1.866-.47 2.332zm54.18-232.314s.47-.466 0-.933c0 0-.47.467 0 .933-.47.467-.47.467-.93.933.46-.466.93-.933.93-.933zm-33.63 132.485c1.4-2.333 2.8-5.598 3.27-7.931 0-1.866-.46-1.399-1.4.467-3.27 5.132-5.13 12.596-1.87 7.464zm-11.67 55.512c0-.933.93-3.732.46-3.265.47-1.399-.93 0-1.86 2.799-2.81 8.398-1.41 9.796 1.4.466zm24.75-109.625c1.87-1.867 2.8-4.666 2.8-6.532 0-1.866-.93-.932-1.86.001-3.74 4.666-4.21 10.73-.94 6.531zm-37.37 180.065c0-.933 0 .933-.47 1.399-.93 7.464.47.467.47-1.399zm48.12-234.645c-.47 1.4-.47 2.333 1.39.466 1.41-2.332 1.87-5.598-.46-2.332-.47.467-.93.934-.93 1.866zm-32.7 133.418c0 2.799 4.67-5.599 5.14-9.797.93-7.464-5.6 5.599-5.14 9.797zm15.41-59.245c1.4-2.333 2.8-5.598 2.81-7.464-.47-1.4-.94-.933-1.4-.466-5.14 6.065-6.07 15.395-1.41 7.93zM1011.4 294.73c0-.933.93-4.665.93-3.732.47-1.399-.47.467-1.87 2.799-2.8 9.331-1.4 10.73.94.933zm35.03-168.403c1.87-1.866 2.8-4.665 2.8-5.598-1.4-3.265-8.4 12.13-2.8 5.598zm-44.39 248.637c0-.933.47-1.399 0-1.865V370.3v4.664zm56.07-306.948v-.933c-.47.467-.93.933 0 .933zm-40.64 182.399c-2.8 5.598-5.13 16.327-1.4 9.796 1.4-3.266 2.8-7.465 3.27-9.797 0-3.732-.93-1.866-1.87.001zm11.68-57.379c-3.26 5.132-5.13 13.529-.47 6.997 1.4-2.332 2.81-5.598 2.81-8.397.46-1.399 0-1.866-2.34 1.4zm-23.83 133.882c.47-3.265.94-6.531 1.41-7.93 0-1.866 0-2.799-.94 1.866-1.4 6.997-1.87 13.061-.47 6.064zm34.11-179.598c1.87-1.866 3.73-4.666 3.27-6.998-.47-1.399-.94-.933-2.34.467-4.66 4.666-5.13 10.73-.93 6.531zm-37.86 257.965c-.47-.467 0-.933 0-.933v.933zm48.6-315.343c.01-.933-.93.933-1.39 1.4-3.27 5.132 2.33-.467 1.39-1.4zm-25.22 122.221c0-1.866-.47-2.333-3.27 1.4-4.2 6.065-5.6 15.861-.47 7.93 2.34-2.333 3.74-7.465 3.74-9.33zm-14.01 63.442c-2.8 6.532-3.74 17.727-.47 8.863.93-2.799 2.33-6.997 2.33-10.729 0-1.866-.46-2.332-1.86 1.866zm18.69-106.358c1.4.466 6.06-6.066 6.53-9.331 0-6.531-9.33 8.399-6.53 9.331zm-27.58 186.126c.47-6.997.47-9.796-.47-2.332-.47 7.93 0 10.262.47 2.332zm39.25-240.706c1.4-1.4 2.34-3.266 2.34-5.131-.47-5.131-8.87 11.664-2.34 5.131zm-23.35 120.354c0-2.799-.47-3.265-2.34-.466-4.66 6.532-6.53 18.661-1.87 11.196 2.34-2.333 4.2-6.998 4.21-10.73zm-12.15 67.174c-2.8 6.532-3.27 19.126-.94 11.196.93-3.732 2.34-8.864 2.34-11.663 0-3.731-.94-1.865-1.4.467zm19.63-122.218c-4.2 5.132-5.14 14.461-.01 7.463 1.87-2.799 3.74-6.532 3.27-8.864 0-1.866-.46-2.332-3.26 1.401zm-24.32 208.982c0-1.866.46-6.064 0-7.464-.47-1.399-.47 17.26 0 7.464zm32.73-253.765c1.86-1.867 3.73-4.666 3.26-6.998-.46-1.4-.93-.933-2.33.467-4.67 4.666-4.67 10.263-.93 6.531zm-22.43 123.152c0-3.731-.93-1.865-1.87.001-4.66 7.465-5.6 19.593-1.4 12.595 1.87-3.732 3.27-8.864 3.27-12.596zm29.44-176.797c.46-.467.93-.934 1.4-1.4v-1.866c-.93.933-.93 1.866-1.4 3.266zm-18.23 117.087c0-1.866-.93-1.866-2.33-.466-6.53 6.532-6.54 17.728-1.87 10.263 2.8-2.8 3.73-7.465 4.2-9.797zm-22.9 146.009c.47 3.265 2.34-7.93 2.8-13.994.47-8.863-3.265 8.863-2.8 13.994zm28.51-197.321c-4.66 4.666-5.13 12.596 0 7.463 1.87-1.867 3.73-4.666 3.74-7.465-.94-1.865-1.4-2.331-3.74.002zm-25.73 276.619c-.47-4.198-.93-11.195-.47-6.997.47 4.198.93 8.396.47 6.997zm30.41-322.334c-.93 2.799 0 2.799 2.33.466 3.27-4.2.01-4.665-2.33-.466zm-20.09 118.021c-5.6 6.532-7 19.127-1.87 12.128 2.33-3.266 4.2-7.931 4.2-11.662.93-2.8 0-2.799-2.33-.466zm-7.02 63.907c0-2.799-.93-1.866-1.86.001-4.671 9.33-5.141 22.858-.94 13.061 1.4-4.199 2.34-9.797 2.8-13.062zm10.76-108.689c-.93 6.531 7.47-2.801 7.94-7.932.46-6.997-7.47 2.801-7.94 7.932zm-17.781 198.718c.467-3.265.469-7.93.47-11.662 0-2.799-.466-2.332-.934.934-.935 8.396-.472 20.057.464 10.728zm26.201-249.098c1.86.932 6.06-4.2 6.06-6.999-.93-5.597-8.86 6.067-6.06 6.999zm-17.36 333.525c.46 2.332 0 0 .46 1.399-.46-3.265-1.4-6.996-.46-4.198v2.799zm.06-216.438c-6.53 6.532-8.403 26.124-1.87 13.061 1.87-3.732 3.27-8.863 3.74-12.129 0-1.866-.94-1.865-1.87-.932zm-7.02 70.438c0-2.799-.929-1.866-1.863 0-4.201 9.797-3.739 25.19-.47 13.528 1.4-4.199 2.803-10.263 2.333-13.528zm17.77-126.883c0-2.799-.94-2.799-3.27-.466-6.53 5.6-7 17.261-1.87 11.196 2.8-2.8 5.14-7.932 5.14-10.73zm15.89-116.62c-.46-.467-.46-.467 0 0-.93 0-.46-.467 0 0-.93 0-.46.466-.93.933.47-.467.47-.467.93-.933zm-34.15 338.194c0-3.731 0-8.396-.465-11.661-.466-2.332-.466-1.399-.467 1.399-.935 7.464.932 17.726.932 10.262zm17.8-263.089c1.87.932 7-5.133 6.54-8.398-.47-6.064-10.27 7.466-6.54 8.398zm-1.5 349.38c-.47-.467 0-.933-.47-1.399.47.466.93.932.47 1.399 0 0 .46.466.46 1.399.47-.467 0-.933-.46-1.399zM996.008 282.14c-.47 8.863 7.002-5.133 7.472-13.996.46-7.93-7.003 5.133-7.472 13.996zm29.442-190.791c2.8-1.867 2.8-5.599.47-3.266-1.4 2.333-1.87 3.733-.47 3.266zm-22.43 125.018c-.93 8.397 8.4-1.868 8.87-9.798.94-7.464-7.93 3.267-8.87 9.798zm-5.631 125.946c.001-3.731-.932-3.731-1.4-.466-2.801 9.33-1.873 25.19-.004 14.927.467-3.265 1.402-9.796 1.404-14.461zm21.511-189.389c0-.933-1.4-1.399-1.86-.933-8.4 3.735-8.4 16.795-1.4 8.864 2.33-2.333 3.73-5.599 3.26-7.931zm-15.01 286.412c-.47-3.266-1.4-7.93-1.4-9.796 0-1.866-.46-3.265 0 2.799.47 7.93 2.33 15.393 1.4 6.997zm17.82-330.26c2.34-4.199.01-5.598-3.26-1.399-2.8 3.733-.93 5.598 3.26 1.399zm-23.374 184.725c.003-8.396-6.533 8.399-6.535 15.862-.003 11.195 6.999-6.999 6.535-15.862zm5.154-67.638c-8.401 7.466-8.406 25.191-1.41 13.528 2.34-4.199 3.74-9.331 3.74-12.129 0-2.799-1.4-2.332-2.33-1.399zm-7.51 147.404c.001-3.732-.933-.933-.933 0-2.802 12.129.924 30.786 1.396 9.795-.465-3.265.003-7.463-.463-9.795zm16.85-201.517c0-2.798-.93-2.798-3.73-.931-7 5.133-7 16.328-.93 11.195 2.8-2.8 5.13-6.998 4.66-10.264zm-1.49 302.734c-.46-2.332-1.86-6.53-2.33-7.929-.93-1.865 5.13 19.123 2.33 7.929zm2.91-345.182c1.86-1.866 3.73-3.733 2.8-6.531-.47-1.399-1.4-1.399-3.74.001-5.59 3.733-4.66 10.263.94 6.53zm-22.902 134.814c-1.403 12.595 8.862-4.201 8.872-13.53-.469-7.93-7.937 6.067-8.872 13.53zm-2.355 76.034c.464 9.796 5.6-6.532 5.603-16.794-.93-9.329-6.066 6.999-5.603 16.794zm14.507-150.671c-7.466 5.6-8.87 20.993-1.4 12.595 3.26-3.266 4.66-8.398 4.66-11.197 0-2.799-1.4-2.332-3.26-1.398zm-7.063 215.973c-1.401 6.065 1.392 24.722 1.86 20.524.467-4.198-.462-15.393-1.394-20.057 0-.933-.466-.467-.466-.467zM1017.06 78.29c0-.932 0-.932 0 0-.47-.466 0-.932 0 0-.93.001-.93.001-.93.934.46-.467.93-.933.93-.933zm-5.15 62.042c-.47-2.333-1.4-2.332-3.73-.932-6.53 3.733-6.07 12.596-.47 8.863 2.33-1.4 4.67-4.666 4.2-7.931zm11.08 369.433c1.4 3.265 1.87 3.732.47 1.4-1.86-3.731-3.73-9.329-1.86-3.732.46.467.93.933 1.39 2.332zm-28.38-233.688c-.465-3.265-1.399-2.332-2.799-.932-7.932 9.798-7.006 31.255-.471 16.326.467-.467 1.868-6.531 1.868-5.598.933-2.799 1.401-6.065 1.402-9.796zm-4.688 77.434c-3.735 11.196-1.408 29.387.927 18.658.935-4.665 1.403-12.595 1.405-17.259-.465-5.131-1.398-5.131-2.332-1.399zm18.738-257.492c-.47 2.332.46 3.265 2.8.932 3.26-3.267-.47-4.198-2.8-.932zm-17.298 124.55c-4.67 16.794 9.798 2.329 9.328-8.399.01-6.531-7.927 3.267-9.328 8.399zm14.948-61.577c0-9.33-13.533 7.001-8.403 10.264 2.803.932 8.403-6.533 8.403-10.264zm-5.22 284.076c0 9.329 5.59 26.12 3.26 12.593-.46-4.198-1.39-9.795-3.26-12.593.47-2.333 0-.933 0 0zm.56-326.056c1.87.932 6.07-3.267 5.6-5.6.01-5.597-8.393 3.735-5.6 5.6zm38.13 428.199c-.47-.466-.94-.932-.47-1.399 0 0 .47.466.47 1.399 0 0 .46.467.46 1.4.47-.467 0-.933-.46-1.4zm-44.225-310.183c.001-3.732-1.398-4.198-4.198-1.398-6.999 7.932-7.937 25.658-1.404 16.326 2.8-3.732 5.601-11.196 5.602-14.928zm-6.087 76.035c.001-2.799.468-5.131.003-7.463.001-3.732-.932-2.799-1.866-1.866-3.733 5.599-6.069 16.328-5.137 21.926.93 7.463 5.598-3.734 7-12.597zm2.31 75.1c-.932-3.732-1.399-2.332-1.866 0-2.802 12.129 1.39 30.32 2.794 17.725.001-4.665.003-12.128-.928-17.725zm5.195-211.309c-8.398 4.667-8.869 20.061-.937 12.128 2.8-2.799 5.134-7.931 4.204-10.73 0-1.865-1.401-2.331-3.267-1.398zm13.897 306.927c2.33 8.862 6.53 19.59 4.67 11.194-.94-3.731-2.33-8.862-4.2-12.593-.93-2.799-1.4-2.332-.47 1.399zm-8.29-354.508c-.46-2.332-1.39-2.331-4.193-.465-6.065 3.267-5.135 10.73.93 7.463 2.333-1.4 4.203-4.199 3.263-6.998zm-13.096 131.546c-.466-2.332-.465-3.265-1.865-2.798-7.931 4.201-11.204 28.924-5.138 22.858 5.133-5.132 7.468-14.929 7.003-20.06zm-4.687 72.77c-3.733 6.531-4.67 17.727-3.739 24.257 1.398 6.996 5.133-5.133 6.069-14.462.001-2.799.002-5.598-.464-7.93-.465-4.198-1.399-3.265-1.866-1.865zm6.572-137.142c-5.598 3.734-7.933 10.731-7.467 13.996.464 7.93 9.796-3.268 10.731-8.866.467-1.399.467-2.332.001-3.731-.466-2.333-1.865-1.866-3.265-1.399zm3.197 227.166c-.932-2.799-1.399-2.332-1.399-1.399-1.869 11.196 4.655 33.584 3.726 17.724-.464-6.064-.929-12.127-2.327-16.325zm4.766-336.787c.467-.466 1.398-.467 1.868-.933 0-.933 0-.933.47-1.4-2.337.467-2.804.934-2.338 2.333zm-1.417 59.241c-.466-2.332-1.865-2.798-4.198-1.398-6.998 3.268-7.001 13.53-.469 9.796 3.732-1.867 5.133-6.065 4.667-8.398zm30.675 381.556c-3.73-8.395-5.6-11.193-1.87-1.865 4.2 7.929 6.53 11.193 1.87 1.865z"/><path d="M975.477 304.537c.462 13.527 10.264-6.534 9.801-18.195-.93-10.262-10.264 6.533-9.801 18.195zm17.319-201.983c.933 0 2.799-.934 3.733-1.867 1.4-3.266-1.398-4.198-4.198-1.398-.467 1.399-.467 2.332.465 3.265zm-3.3 115.217c-.465-5.131-6.063-1.398-9.797 6.067-2.334 5.131-2.802 11.195-.47 11.661 3.731.932 10.732-11.665 10.267-17.728zm-4.242 148.802c-1.397-8.862-5.134 6.999-4.67 14.928 1.392 24.722 6.997-.468 4.67-14.928zm3.327-206.643c-8.397 3.734-7.469 16.795-.937 12.128 2.8-1.867 5.133-6.065 4.668-9.33.467-3.266-1.398-4.198-3.731-2.798zm12.969 298.531c-1.4-4.197-1.4-1.399-.93.001.46 14.46 10.25 33.582 3.73 10.261-.93-2.799-1.87-7.463-2.8-10.262zm49.88 105.872c-2.8-4.664-6.99-10.727-3.73-5.597 2.33 4.198 6.53 10.261 3.73 5.597zm-65.169-444.985c1.399.466 3.265-.467 5.131-1.401 3.267-4.199.003-7.463-4.663-3.73-1.4 1.4-1.401 4.199-.468 5.131zm-14.059 215.51c.928 14.926 10.264-6.534 8.402-19.594-.929-11.195-9.332 8.399-8.402 19.594zm-.443-77.899c-.471 14.46 12.595-2.336 11.666-14.464-.93-9.329-11.197 4.668-11.666 14.464zm14.883 144.598c-2.795-12.127-4.667 9.331-2.338 20.992 3.727 13.06 5.133-8.865 2.338-20.992zm.533-220.636c-.931-7.463-10.729 2.335-11.664 8.866-.936 11.195 13.061-.004 11.664-8.866zm25.565 313.921c-.94-2.799-2.34-3.265-.47 3.265 2.79 10.262 10.72 24.719 6.06 11.66-.93-3.732-3.26-9.795-5.59-14.925zm-25.083-364.765c-1.398-5.131-8.863.469-8.864 4.2-.002 5.598 10.728 2.329 8.864-4.2z"/><path d="M966.153 285.881c.462 13.527 12.129-4.668 11.667-17.263.003-12.128-11.663 5.135-11.667 17.263zm12.576 61.103c-1.396-11.661-8.865 7.932-7.004 21.926 1.862 13.993 8.399-8.399 7.004-21.926zm13.494 110.547c4.195 11.66 3.268-8.864-.46-20.991-3.262-10.727-3.735 9.331.46 20.991zm-10.652-256.084c-.93-7.463-11.195 2.802-12.131 10.266-2.336 14.461 13.994-.004 12.131-10.266zm1.435-116.149c-.467-.466-.933 0-1.866 0-1.867 2.8 4.664 1.865 1.866 0zm48.374 449.654c-1.86-3.731-2.33-3.265-1.4-1.399 3.27 8.861 13.06 22.386 8.4 13.991-1.87-3.731-5.13-8.861-7-12.592zm-53.057-389.946c-7.464 2.801-7.001 14.462-.003 11.195 3.265-1.4 5.599-4.666 4.667-8.398.001-3.731-1.398-4.197-4.664-2.797zm-15.444 171.196c.928 15.859 12.596-6.068 10.734-20.061-.929-11.195-11.197 7.467-10.734 20.061zm12.576 61.103c-6.068 10.73-1.411 37.784 1.856 29.853 2.801-7.464 2.339-21.925.475-28.455.001-2.798-1.398-2.331-2.331-1.398zm4.28-274.747c2.334-3.266-.931-5.598-4.197-3.264-1.867 2.799.931 6.53 4.197 3.264zm-8.432 119.416c-5.599 3.734-7.933 10.731-7.934 14.463-1.871 15.86 14.46-.471 12.598-12.598-.465-3.265-2.797-3.731-4.664-1.865zm27.445 252.348c.929 13.06 10.722 32.182 7.922 19.122-.93-5.597-3.26-13.526-6.06-20.056-1.86-3.731-2.793-3.731-1.862.934zm-20.897-310.191c-.466-2.332-2.331-2.331-4.197-2.331-10.73 3.269-8.869 20.061.462 12.594 3.266-2.333 4.667-7.464 3.735-10.263zm84.769 417.924c-1.86-2.798-4.66-6.529-6.99-9.793-2.33-3.265-2.33-2.332-1.4-1.399 3.73 7.462 13.52 18.187 8.39 11.192zm-88.021-462.237c1.866-.933 2.8-3.732 1.868-5.598-.933-1.865-1.399-1.399-3.265-1.398-6.064.468-5.134 9.797 1.397 6.996zm-3.794 206.178c-.931-3.732-2.797-3.731-4.197-2.331-7.933 9.798-7.008 36.852-1.408 29.387 4.666-5.599 6.536-19.593 5.605-27.056zm-13.509-60.17c-.005 14.927 14.461-3.27 13.066-15.864-.93-11.194-13.063 4.669-13.066 15.864zm22.338 174.45c4.661 12.126 5.601-12.13 1.407-25.656-3.728-12.127-5.602 13.995-1.407 25.656zM960.116 193.99c-.47 11.662 13.994.929 13.064-8.4-.93-9.329-12.594-1.396-13.064 8.4zm54.944 317.177c-2.33-4.197-2.79-3.731-1.86.934 2.79 12.127 14.45 29.382 10.25 17.722-2.33-6.063-6.06-14.458-8.39-18.656zm-42.796-381.552c-.932-2.799-2.332-2.332-3.731-1.865-10.263.936-4.203 16.327 2.796 7.463.933-.934 1.401-3.266.935-5.598zM1092 613.299c-3.73-3.731-9.79-9.793-6.06-5.129 4.19 4.197 10.72 9.792 6.06 5.129z"/><path d="M952.622 296.614c.928 15.859 14.462-5.136 13.533-19.129-1.395-13.527-13.995 4.669-13.533 19.129zm16.774 62.5c-2.329-12.593-9.799 9.799-7.937 23.792 3.26 17.258 11.198-9.332 7.937-23.792zm20.495 97.951c-.932-2.798-.932-3.731-2.331-6.063-1.864-3.731-2.331-2.332-2.798.001-1.402 8.863 2.326 20.99 5.123 26.587 5.594 10.26 2.336-11.663.006-20.525zm-36.312-238.817c-.004 13.061 15.393-.471 13.531-11.666-1.397-9.795-13.062 1.87-13.531 11.666zM965.28 86.236c2.799-.001 2.334-3.266.001-2.799a1.458 1.458 0 00-.001 2.799zm69.83 462.709c-1.87-2.799-2.8-2.798 0 3.731 4.66 10.261 16.78 24.251 9.32 11.193-2.33-4.198-5.59-10.261-9.32-14.924zm-71.247-404.401c-6.064 1.401-6.999 6.066-6.533 9.331 1.397 6.997 12.594 1.396 11.197-6.534-1.399-2.332-3.264-3.264-4.664-2.797z"/><path d="M955.41 332.997c5.6-7.465 7.47-20.527 6.072-27.523-.465-4.198-2.331-4.197-3.73-3.731-9.798 7-10.275 41.052-2.342 31.254zm10.236 85.826c5.126 18.19 8.866-9.799 5.139-24.724-3.261-13.527-9.332 10.265-5.139 24.724zM962.01 101.63c1.866 0 3.266-1.4 1.867-3.732-.466-1.4-1.865-1.865-3.731-1.865-3.732.934-2.334 6.065 1.864 5.597zm-14.503 143.208c-.005 14.927 16.326-1.404 14.464-14.464-1.396-10.729-13.994 2.802-14.464 14.464zm181.803 397.37c-.47-.466-.94-.932-1.87-.932 0 0 .47.466 1.87.932.46.467.93.933 1.4 1.399-.94-.932-1.4-1.399-1.4-1.399zm-130.1-153.426c-1.864-3.731-2.798-1.865-2.332.467-.005 15.86 15.852 40.111 10.252 19.588-1.86-6.53-5.59-15.858-7.92-20.055zm-42.349-326.044c-8.864 3.268-8.869 19.128-.005 14.927 4.199-2.334 6.533-6.533 5.601-11.197.001-3.732-1.864-4.664-5.596-3.73zm106.229 424.448c-3.27-3.264-3.73-2.798-1.87-.932 5.13 8.861 19.59 21.451 13.06 13.057-3.73-3.731-7.93-8.861-11.19-12.125zM958.274 117.491c1.866-.934 3.266-3.266 1.867-5.598-.932-1.866-1.865-1.866-2.798-1.865-7.463-.931-5.601 10.264.931 7.463z"/><path d="M948.406 357.721c1.857 28.92 15.394-4.202 10.735-20.994-2.329-10.727-11.198 9.333-10.735 20.994zm-6.506-83.028c.928 15.86 16.794-3.736 14.466-18.196-1.396-11.661-14.928 4.669-14.466 18.196zm33.073 154.389c-1.865-4.664-3.265-3.264-4.198-.465-2.335 8.863-.473 19.125 1.391 24.722 7.457 22.388 9.332-8.399 2.807-24.257zm41.017 97.945c-2.8-3.731-3.26-2.332-2.33.467 1.4 8.862 7.46 18.656 11.19 22.386 7.92 9.794-1.4-11.661-8.86-22.853zm-72.2-332.566c-1.87 15.861 16.325 3.261 13.53-7.934-1.863-8.395-12.594.471-13.53 7.934zm7.951-69.505c-6.997.469-7.001 12.597.463 10.729 2.799-.934 5.132-3.267 4.201-6.998-.466-2.333-1.865-3.732-4.664-3.731zm152.379 501.4c-8.39-7.46-12.12-9.325-3.26-1.398 8.86 6.994 12.59 8.859 3.26 1.398z"/><path d="M954.933 367.982c-9.332 9.332-4.212 47.113 2.322 34.984 4.201-8.865 3.739-24.258 1.875-31.72-1.398-4.198-2.797-4.664-4.197-3.264zm28.891 98.881c-1.399-3.265-2.798-3.731-3.265-2.332-4.667 9.331 9.316 43.845 10.253 32.65.002-9.329-3.725-23.322-6.988-30.318zm-31.642-257.477c-.932-2.799-2.798-3.731-4.197-3.264-6.531 1.867-9.799 9.798-10.266 13.064-3.738 19.592 17.258 4.193 14.463-9.8zm86.658 355.417c-3.73-3.73-4.2-3.264-1.87.934 5.13 12.592 21.92 28.447 14.92 16.788-2.79-5.597-9.32-13.991-13.05-17.722zm-90.351-484.16c2.332.466 2.333-2.333.001-2.798a1.458 1.458 0 00-.001 2.798zm2.779 65.304c-.465-2.332-2.331-3.264-3.264-3.264-10.728-1.396-10.734 18.195-.47 12.595 3.732-1.867 5.133-6.066 3.734-9.331zM1147.49 655.73c4.2 2.332 5.14 2.331 1.87.933-4.66-2.798-11.66-6.994-5.13-2.331.93 0 1.87.932 3.26 1.398z"/><path d="M961.918 408.562c-5.127-15.392-11.199 11.198-5.606 27.989 6.991 18.19 11.198-11.198 5.606-27.989zM930.246 251.84c.461 15.393 17.725-.938 15.864-14.931.004-13.994-15.86.005-15.864 14.931zm14.973-155.802c1.866-.001 2.799-.934 2.334-3.266-.933-1.866-1.865-2.799-3.731-2.798-4.198-.465-2.334 6.065 1.397 6.064zm48.855 409.072c-.469 8.863 5.591 22.388 11.186 29.85 6.53 7.461 2.8-7.465-2.33-19.124-1.86-3.732-3.259-6.996-5.125-8.862-3.263-5.13-3.73-3.73-3.731-1.864zm-60.072-336.301c-5.136 16.328 15.857 10.257 13.062-2.803-2.33-7.929-11.661-2.328-13.062 2.803zm136.078 432.835c-3.27-2.331-3.73-2.798.93 3.732 7.93 9.793 24.25 21.449 13.52 9.791-3.73-3.73-9.32-9.326-14.45-13.523zM943.816 107.7c-.932-1.866-2.331-2.332-2.798-2.798-7.929-2.33-5.6 10.264.931 8.396 1.866-.934 2.8-3.733 1.867-5.598zm19.49 336.779c-7.468 14.929 12.577 58.304 10.255 25.186-.464-7.93-2.794-17.725-5.591-23.322-2.797-6.529-3.264-4.197-4.664-1.864zm53.614 99.34c-3.26-3.264-3.73-1.865-3.27.467 2.8 16.792 25.65 39.642 15.86 19.587-3.27-6.063-8.86-15.391-12.59-20.054zm-76.393-356.353c-.932-2.799-3.264-4.198-4.197-4.197-11.662.47-14.467 22.861-5.604 21.459 6.997-1.402 11.199-11.199 9.801-17.262zm183.183 457.543c-4.2-3.264-9.33-7.461-14.93-10.258-3.73-1.864-2.79-.932 0 1.866 8.86 7.927 23.79 15.386 14.93 8.392zM934.483 119.83c-7.929-.464-7.467 13.064.463 11.662 3.266-.468 5.599-2.801 5.134-6.999-.933-2.798-2.798-4.663-5.597-4.663z"/><path d="M983.342 516.774c8.394 10.26 3.738-19.592-5.121-33.117-6.993-11.659-5.603 19.593 5.121 33.117zm-65.217-290.119c.462 15.393 18.192 1.394 16.33-12.599-.462-12.595-16.326-.462-16.33 12.599zm141.695 374.992c-3.73-5.596-9.33-13.058-15.39-19.12-4.2-4.197-5.6-3.73-2.8.934 5.59 13.992 26.11 30.778 18.19 18.186zM931.699 71.32c2.332 1.398 1.867-1.867.001-2.8-1.866 0-1.866 1.867-.001 2.8zm-.953 67.17c-11.194-2.795-11.201 19.595-.004 13.994 3.732-1.867 5.133-6.066 3.735-10.263-.933-1.866-2.332-3.265-3.731-3.731z"/><path d="M912.052 257.91c.927 17.725 20.058-1.406 17.73-16.798-2.328-14.46-18.192 1.405-17.73 16.798zm82.95 264.925c-2.331-3.265-3.73-3.731-4.197-2.331-3.735 11.196 18.645 44.774 17.715 32.647-1.4-8.863-8.39-23.321-13.518-30.316zM927.963 87.18c1.399.466 2.799 0 2.333-3.266-.466-2.332-1.864-3.73-2.797-3.73-5.131-2.331-3.734 5.598.464 6.996zm161.697 539.647c-2.8-2.798-7.46-6.528-11.19-9.326-5.13-3.263-3.27-.465-1.87.934 8.86 14.458 37.31 28.909 13.06 8.392zM915.345 166.949c-5.603 17.727 16.322 12.589 13.994-1.87-1.863-9.329-12.127-3.728-13.994 1.87zm41.883 323.711c13.053 27.051 12.598-10.732 2.808-28.921-7.459-13.992-9.333 13.997-2.808 28.921zM926.093 99.309c-.932-2.799-2.331-3.265-2.797-3.731-7.463-3.73-6.067 10.73.93 9.329 2.799-.001 3.266-2.333 1.867-5.598zm105.277 490.685c11.65 9.792-.93-12.127-7.46-21.455-1.87-2.798-3.27-4.197-5.6-6.528-3.73-3.731-4.66-1.865-3.73.934.93 10.261 10.72 21.92 16.79 27.049zm-112.765-406.72c-8.863-.464-13.065 12.132-11.201 18.662 2.329 10.728 16.793-.005 16.329-10.734-.931-5.597-3.262-7.929-5.128-7.928zm201.835 465.934c-3.26-1.398-2.33-.466-.93.933 8.86 8.86 34.51 19.581 18.19 8.858-5.6-3.73-13.06-8.393-17.26-9.791zM911.161 118.905c-.003 9.329 12.125 7.459 11.195-.004-.93-9.329-11.193-7.46-11.195.004z"/><path d="M983.34 526.103c-1.864-8.395-6.059-18.19-10.255-24.253-4.197-6.062-5.13-3.263-5.597-.931-6.07 17.261 24.704 60.166 15.852 25.184zM899 228.993c-.006 17.726 20.989 3.259 18.195-12.6-2.328-13.526-17.725-.927-18.195 12.6zm163.61 393.178c13.99 10.258 0-10.262-14.45-21.92-11.66-9.792.46 11.662 14.45 21.92zM915.844 55.465c.001-.933-.932-.933-1.399-1.4-1.866.934 3.73 5.597 1.399 1.4zm-2.822 77.433c-11.66-4.195-12.134 20.528-.471 15.393 3.733-1.867 5.133-6.065 4.202-10.73-.932-2.798-2.798-4.664-3.731-4.663z"/><path d="M992.198 541.494c-4.197-4.197-5.597-2.797-5.598.935-.003 10.262 6.99 20.988 10.72 26.585 18.65 21.451 8.87-11.664-5.122-27.52zm-91.812-270.053c7.931-4.201 12.6-17.263 11.669-25.659-1.395-14.46-22.39.007-19.597 20.53.465 3.265 3.729 7.462 7.928 5.129zm10.788-197.317c1.866.933 2.799-.933 1.867-2.8-1.863-9.328-8.863-.463-1.867 2.8zm194.806 574.622c-6.53-5.596-13.52-10.725-19.59-13.988-4.19-2.331-4.19-1.398-3.73.001 6.53 12.126 39.64 28.442 23.32 13.987zm-195.299-486.46c-1.862-11.195-14.459-4.194-15.395 5.135-.937 14.927 18.19 7.925 15.395-5.135zm-1.377-74.167c-.465-3.266-1.864-4.664-4.197-5.13-6.063-2.33-5.134 10.73.93 11.195 2.332.465 4.665-.935 3.267-6.065zm122.986 521.466c14.93 11.191.47-15.393-13.52-28.45-13.52-11.657.47 18.192 13.52 28.45zM900.413 181.88c-12.593-3.261-18.666 26.128-7.004 24.725 8.863-1.402 12.131-11.199 11.2-18.662-1.398-3.265-2.797-5.597-4.196-6.063zm245.677 488.311c-6.99-3.263-15.39-6.992-16.79-7.458 0 .933 6.06 6.062 12.59 9.792 19.59 9.323 21.92 6.99 4.2-2.334zM903.701 107.712c-.932-4.665-3.264-5.13-3.73-5.597-11.66-5.127-6.071 21.926 2.795 13.06.933-.933 1.867-3.732.935-7.463zm64.247 414.198c-11.657-16.323-10.267 15.863 2.789 32.651 15.854 17.721 10.266-14.929-2.789-32.651zm94.192 103.526c-2.8-2.798-5.59-4.663-7.93-6.062-15.39-11.656-3.26 10.73 12.59 20.987 16.79 10.258 8.4-2.801-4.66-14.925zM897.603 218.265c-1.861-14.926-19.123-4.192-19.595 12.134.461 20.057 21.923 4.191 19.595-12.134zm1.455-183.32c-.933.933-.001 1.866-.001 2.799 2.332 2.332 1.866-.934.001-2.799zm-6.557 89.563c-11.195-1.863-10.268 19.594-.472 18.192 3.732-.934 6.998-4.2 6.067-11.664-.931-4.664-3.263-6.063-5.595-6.528z"/><path d="M997.313 592.337c19.117 18.186 7.937-14.463-6.987-30.318-13.524-13.523-7.468 15.862 6.987 30.318zm-106.25-341.418c-2.327-16.325-20.99-.46-20.529 17.732 1.859 20.524 24.255.925 20.529-17.732zm5.657-197.781c-4.195-9.795-6.531 1.867-1.401 4.198.933 0 2.799-.933 1.401-4.198zm221.85 613.796c-5.6-4.663-14.92-11.191-24.25-15.852-5.6-2.797-5.6-.932-3.27 2.333 10.26 13.991 41.51 25.643 27.52 13.519zM874.297 163.229c-.005 14.927 17.256 8.858 16.794-4.669-1.395-14.46-16.324-7.925-16.794 4.669zm10.288-87.698c.933 1.866 4.198 3.264 6.063 3.264 3.733-2.8.937-13.061-5.127-12.593-1.399.467-2.334 6.065-.936 9.33zm158.435 555.975c-2.8-9.328-16.32-24.718-24.72-31.246-3.73-2.797-6.06-1.397-5.6.002 0 15.86 32.64 41.972 30.32 31.244zM876.158 179.089c-8.397.935-11.665 10.732-11.201 17.729.463 11.661 11.659 9.792 16.326 1.394 1.867-2.799 2.801-6.531 1.87-12.129-.932-5.597-3.73-7.462-6.995-6.994zm286.252 506.49c-3.73-1.864-10.72-4.194-16.32-6.059-7.46-1.863-4.2.468-2.8 1.867 13.99 13.057 54.1 18.642 19.12 4.192zM885.512 96.989c.003-10.263-9.792-11.659-10.728-3.262-2.335 10.729 11.191 14.923 10.728 3.262zm90.815 481.827c.47-11.662-8.854-29.384-15.849-37.312-4.196-5.13-6.995-4.196-7.929-2.33-7.934 14.463 21.907 56.435 23.778 39.642zm80.213 58.75c-14.46-7.926 0 12.128 9.79 19.122 33.11 21.914 13.06-6.535-9.79-19.122zM875.68 217.805c-.931-5.597-3.73-6.529-5.596-6.529-14.46-.462-19.134 31.259-7.939 31.256 9.329-.003 15.398-14.465 13.535-24.727zm-2.773-84.895c3.732-.934 5.133-6.999 4.202-12.596-.466-3.265-1.865-5.597-3.264-6.063-11.659-6.993-14.001 23.327-.938 18.659z"/><path d="M986.121 583.011c-15.389-13.523-7.468 17.728 8.387 31.717 20.982 17.253 9.802-16.329-8.387-31.717zM869.139 253.258c-3.727-17.724-24.724 4.206-20.532 24.262 3.727 16.792 25.191-5.605 20.532-24.262zm262.021 431.864c-5.6-4.663-17.26-11.656-25.65-15.385-9.8-4.195-11.19-2.796-7.93 1.402 10.72 14.457 46.17 24.708 33.58 13.983zm-253.091-658.1c-2.331-1.399-2.333 5.132.465 6.997 2.332 1.398 2.8-4.666-.465-6.997zm-15.434 138.543c5.132-2.334 7.932-8.865 7.001-15.395-.931-5.597-3.263-7.929-6.061-7.928-13.061-1.862-14.469 28.458-.94 23.323zm157.055 456.619c-16.78-12.123-6.53 15.861 13.99 28.916 21.92 12.588 6.07-15.395-13.99-28.916zM873.864 52.678c0-2.799-1.865-4.664-4.663-6.529-6.064 1.401-.006 18.659 4.661 12.127 0-1.866.934-4.665.002-5.598zm-26.167 151.141c9.795.464 15.397-12.599 13.067-22.394-.932-3.731-2.797-6.529-4.662-6.529-14.46-3.261-18.201 28.46-8.405 28.923zm8.431-118.483c3.263 6.996 10.261 4.662 9.797-4.201.005-15.86-14.458-7.926-9.797 4.2zm95.482 476.228c-13.524-12.59-10.734 17.263-.01 31.72 27.511 33.11 20.528-13.067.01-31.72zm132.9 122.64c14 4.66 1.87-10.263-12.12-19.588-4.2-3.264-8.86-5.129-13.06-7.46-7.93-3.262-7.46-1.863-6.99.469 3.72 10.261 19.58 22.384 32.17 26.579zM852.823 219.211c-1.861-17.725-21.456-5.591-21.461 13.068.926 21.457 24.254 6.523 21.461-13.068zm4.697-109.153c.002-5.598-1.863-9.329-5.594-10.26-9.795-2.33-12.135 22.393-1.872 21.457 3.731-.001 7.464-3.734 7.466-11.197z"/><path d="M1004.3 639.447c.47-9.795-12.59-27.517-23.316-35.444-6.063-4.196-9.329-2.796-9.329.003-2.805 17.727 30.775 48.503 32.645 35.441zM845.814 258.863c-2.326-20.058-23.322-2.792-22.862 18.198 1.859 23.323 26.12 3.724 22.862-18.198zm266.216 429.53c-19.12-6.058 1.4 13.527 22.85 19.118 21.93 5.125.01-12.128-22.85-19.118zM864.549 3.236c.001-.932-.932-1.865-1.398-2.331-2.8 1.866 2.795 10.26 1.398 2.331zm-17.3 136.678c-.93-10.262-12.591-10.724-16.326.472-6.071 23.791 19.585 20.518 16.326-.472zM1033.67 673.49c24.72 12.587 7.47-15.862-14.91-29.849-19.592-12.122-5.61 18.66 14.91 29.849z"/><path d="M816.874 323.243c4.191 25.654 28.454.458 23.33-23.33-3.725-21.456-25.655.474-23.33 23.33zm40.204-292.95c-.462-15.393-11.662.47-3.733 5.599 2.331 1.398 3.732-.934 3.733-5.6zM827.64 198.695c6.531-2.801 10.266-11.199 9.802-20.061-.464-7.93-2.795-11.195-8.393-10.26-13.995 2.803-15.871 36.389-1.409 30.321zm13.566-128.281c3.732.932 5.599-2.8 5.6-8.398.002-6.53-1.863-8.396-3.729-9.328-6.062-4.197-9.8 15.396-1.871 17.726zm102.467 514.942c-16.789-14.922-12.601 19.129 1.855 34.518 27.979 27.979 19.13-16.332-1.855-34.518zm135.247 100.715c-4.67-2.797-9.8-5.128-14.46-6.992-8.4-2.797-8.4-.931-7.93 1.401 2.79 10.262 20.05 21.918 34.51 25.179 15.39 4.193 2.8-10.263-12.12-19.588zM806.172 233.219c1.86 19.591 25.188 4.657 21.929-16.333-2.326-20.057-22.856-2.325-21.929 16.333zm29.429-138.548c.471-14.46-12.123-13.99-13.993.005-1.405 16.326 14.456 13.523 13.993-.005z"/><path d="M976.312 628.261c-19.121-13.522-9.802 20.06 9.785 34.048 26.583 16.319 13.533-18.196-9.785-34.048zm144.578 80.188c-20.99-5.125.46 14.46 24.25 18.651 24.26 4.657 1.4-12.595-24.25-18.651zM795.897 277.07c.925 27.987 27.986 7.455 23.328-16.8-2.792-20.523-22.856-2.325-23.328 16.8zm10.304-138.076c.929 13.993 19.589 7.457 17.262-10.734-1.394-16.326-17.724-5.592-17.262 10.734zm212.079 528.437c-21.452-11.189-7.47 19.593 16.32 30.315 26.58 11.653 7.93-18.195-16.32-30.315zM788.884 330.715c4.19 26.587 29.387 1.39 24.263-23.331-3.258-22.855-26.588-.458-24.263 23.331zM837.03-3.752c-2.8 3.732-1.403 11.662 1.863 11.194 2.333-4.199.936-12.128-1.863-11.194zM791.261 180.98c-.472 19.125 21.454 13.054 20.527-8.402-.927-18.659-18.655-11.19-20.527 8.402zM933.87 610.081c-19.587-17.719-17.266 20.063 4.186 37.783 24.717 18.184 17.732-19.597-4.186-37.783zM827.223 35.9c.001-4.665.002-8.397-4.196-7.929-5.598.002-6.536 18.66-.472 18.192 3.265-.467 4.666-5.599 4.668-10.263z"/><path d="M809.402 353.099c-7.457-22.388-29.857 12.137-21.002 35.924 8.857 20.055 29.858-13.07 21.002-35.924zM1098.5 717.784c-.93-.932-11.2-7.46-9.8-6.994-5.59-3.73-13.05-7.459-21.92-9.789-7.93-2.33-9.33.003-7.93 3.268 7.93 20.988 62.03 33.1 39.65 13.515zM800.58 215.495c-1.859-20.523-20.989-4.192-22.394 12.135-1.407 26.589 25.653 10.721 22.394-12.135zm7.036-127.345c3.732-.935 6.066-7 5.601-13.996.002-5.598-1.863-6.53-2.796-7.463-10.727-6.994-14.468 24.727-2.805 21.458zM980.492 687.5c28.448 16.318 14.466-18.196-8.853-33.116-22.385-15.853-13.533 19.129 8.853 33.116z"/><path d="M810.785 404.876c-8.389-22.388-28.923 8.405-21.467 33.591 10.72 27.518 32.188-7.939 21.467-33.591zm344.145 342.279c26.12 2.791 1.87-13.995-25.65-18.185-22.39-4.657.46 14.461 25.65 18.185zM791.237 262.144c-3.725-23.322-26.122.941-23.796 21.931 3.258 21.923 28.453 2.324 23.796-21.931zm4.238-132.009c1.4-2.333 3.734-7.465 3.269-14.462-.463-8.862-3.262-8.862-4.661-9.328-17.258-4.193-14.008 44.785 1.392 23.79zm95.02 458.036c-17.72-17.72-21.463 20.531-1.412 40.582 23.784 20.984 23.33-20.531 1.412-40.582z"/><path d="M820.563 465.979c-5.126-19.123-14.921-21.453-21.921-7.923-12.602 23.793 10.708 67.633 21.446 35.444 1.867-4.665 3.271-18.193.475-27.521zm204.707 230.837c-4.2-2.331-6.06-3.264-11.19-5.594-20.059-7.924-5.14 18.193 11.18 27.051 34.05 17.249 23.33-8.403.01-21.457zM784.691 314.39c-4.191-22.855-27.521-.458-24.73 23.797 4.19 26.587 30.786.924 24.73-23.797zm-18.152-132.936c5.595 9.327 17.727-4.67 18.663-16.798 1.875-30.787-28.453-1.391-18.663 16.798z"/><path d="M828.48 509.358c-13.522-20.987-27.993 15.868-13.54 39.653 17.718 26.116 30.791-14.936 13.54-39.653zm97.441 162.765c27.515 19.117 20.997-20.064-4.187-37.782-20.52-14.921-15.866 22.395 4.187 37.782zm164.169 76.451c34.52 8.385 7.94-17.262-20.05-23.784-24.25-6.523-.47 18.192 20.05 23.784zm-321.287-341.82c13.063-4.668 16.801-27.993 12.141-41.985-3.263-7.929-6.528-8.394-9.794-6.994-20.059 6.07-17.741 54.115-2.347 48.979zm39.77-398.837c-1.861-17.725-13.064 9.334-4.668 9.331 1.866 0 5.132-3.267 4.668-9.33zm-59.306 217.856c-.473 21.924 25.185 11.187 22.86-13.534-1.393-20.991-21.921-8.856-22.86 13.534z"/><path d="M848.055 563.461c-17.719-23.318-27.993 15.868-8.875 39.652 20.517 23.317 27.526-17.267 8.875-39.652zM791.3 54.103c.469-7.93-1.397-9.796-3.729-10.261-6.996-1.398-12.601 21.927-3.738 22.39 3.731 0 6.532-5.599 7.467-12.13zm171.469 625.006c-22.853-12.588-11.668 20.994 9.319 33.582 32.182 17.25 19.131-19.13-9.319-33.582zM782.793 420.744c-8.855-23.787-30.322 6.073-22.4 31.726 10.253 30.783 33.121-7.007 22.4-31.726zm387.057 337.601c-9.32-4.662-23.78-7.922-34.98-8.852-6.99-.464-8.86 1.402-8.39 2.801 6.52 15.858 72.29 20.036 43.37 6.051zM750.179 293.876c8.398-5.6 12.133-17.729 10.737-29.39-1.396-9.796-4.194-13.526-11.192-10.259-18.194 7.935-16.808 52.249.455 39.649zm13.58-175.86c4.665-.934 8.865-6.067 9.801-16.329.469-7.93-1.396-11.661-4.661-12.127-12.128-.929-16.336 30.325-5.14 28.456z"/><path d="M873.695 613.365c-19.586-17.72-20.997 20.997-2.344 39.65 25.648 22.848 26.594-19.133 2.344-39.65zm-84.388-137.581c-12.588-22.853-28.925 13.07-18.67 36.39 14.918 29.849 34.988-9.807 18.67-36.39zm256.943 265.339c-5.6-8.394-20.99-19.118-32.18-22.847-10.26-3.728-15.861-2.794-12.6 5.135 6.06 20.989 55.5 36.834 44.78 17.712zM729.172 347.525c4.66 15.859 22.856 2.326 24.727-14.467.468-5.132.469-10.729-1.395-16.326-2.796-9.329-5.595-9.328-8.86-8.86-13.529 4.202-18.666 24.261-14.472 39.653zm22.911-180.527c1.867-2.799 3.734-9.33 3.737-16.794.003-10.262-3.729-9.328-5.128-9.794-20.058-1.393-15.876 54.114 1.391 26.588z"/><path d="M803.283 533.621c-14.92-23.318-29.392 15.402-14.005 39.187 18.65 26.116 32.19-14.47 14.005-39.187zm104.449 128.712c-8.861-5.128-12.594-2.329-13.528 2.336-3.27 13.529 8.388 27.053 15.383 33.114 33.111 24.713 27.527-18.2-1.855-35.45zm198.678 101.629c-7.92-6.062-23.32-12.121-34.98-13.517-8.86-1.397-9.79 1.402-8.86 4.201 6.99 20.988 67.63 27.5 43.84 9.316zM724.956 407.7c5.592 18.657 21.921 7.923 24.725-8.87 1.401-6.064 1.403-12.595-1.393-21.923-3.262-9.795-7.927-10.726-13.059-7.46-12.13 8.4-13.069 27.059-10.273 38.253zm-6.476-181.918c2.327 17.259 25.655 2.325 21.93-20.997-2.792-21.457-23.789-.459-21.93 20.997z"/><path d="M822.392 586.325c-17.254-17.253-25.663 27.529-1.413 47.113 18.654 13.989 22.865-28.461 1.413-47.113zm130.573 121.241c-22.387-9.322-10.269 21.46 8.386 32.65 38.709 20.046 23.33-20.531-8.386-32.65zM762.389 21.459c-1.867 3.732-4.201 9.797-3.736 13.995 1.399 2.332 4.197 3.264 6.53 1.864 5.6-8.398 3.737-19.593-2.794-15.86zm-17.864 458.07c12.598-9.799 11.671-31.256 5.612-44.782-3.264-6.063-6.062-8.861-9.327-7.46-22.859 6.071-13.547 64.842 3.715 52.242zm438.845 301.669c-7.46-4.663-20.52-8.391-37.78-8.852-11.66-.463-13.99.937-8.86 6.067 13.52 13.523 63.43 13.042 46.64 2.785zM726.399 262.63c-2.794-14.926-20.056-7.924-22.86 11.669-5.143 37.784 29.848 17.716 22.86-11.669zm19.179-180.526c.936-9.33-1.396-10.728-4.195-10.727-7.93.468-15.401 27.525-4.672 26.123 5.131-.468 8.398-7.466 8.867-15.396zm110.382 561.12c-21.918-19.119-23.329 21.464-1.877 39.183 25.649 20.05 26.127-19.599 1.877-39.183zm168.82 131.491c35.91 10.718 14.93-20.529-15.38-28.449-26.124-7.456-5.61 21.458 15.38 28.449zM757.567 542.964c11.665-10.732 8.874-34.987.481-48.045-4.196-6.063-9.794-6.061-11.66-5.128-22.394 14.933-2.818 65.305 11.179 53.173zM710.511 356.86c7.465-7.466 9.802-21.927 6.54-32.654-2.329-9.795-6.994-10.727-11.193-8.393-20.527 9.335-14.478 61.111 4.653 41.047zm6.59-198.714c5.132-3.267 7.934-12.597 7.936-20.994-.464-6.996-2.33-7.929-4.196-7.928-14.925-2.794-19.603 39.189-3.74 28.922zm177.551 568.563c35.91 24.711 28.46-20.067-1.856-35.451-21.92-11.655-15.399 21.928 1.856 35.451zM779.94 602.664c10.732-12.597 4.209-36.851-6.516-48.51-5.13-5.129-10.727-5.128-12.594-3.261-20.529 17.732 6.044 65.769 19.11 51.771zm297.55 174.367c-28.45-5.122-6.54 18.661 19.58 22.385 31.26 3.255 14-17.73-19.58-22.385zM714.232 390.444c-6.989-26.586-30.32 2.342-24.73 26.596 7.921 28.452 33.119-.476 24.73-26.596zm-29.333-176.78c-.941 25.189 21.921 8.856 21.46-11.201.007-22.391-19.588-11.19-21.46 11.201z"/><path d="M787.855 650.707c27.044 33.578 36.388-14.937 10.273-36.387-18.187-17.253-23.329 18.666-10.273 36.387zm172.554 122.161c27.052 7.456 9.335-20.527-5.122-30.318-4.664-2.797-6.996-4.196-13.06-5.594-9.328-2.796-12.594.471-13.062 3.736-1.404 15.394 18.184 28.449 31.244 32.176zM693.681 481.877c10.718 33.115 35.918-4.209 21.932-30.327-10.721-23.786-27.524 9.804-21.932 30.327zm495.749 319.377c-8.86-4.196-25.65-6.057-37.78-6.053-10.73.47-10.73 3.269-7.93 6.066 13.52 15.39 67.17 10.242 45.71-.013zM745.137-3.258c.468-2.333-.932-1.866-1.865-2.798-7.466 9.331 1.862 14.926 1.865 2.798zM680.21 293.897c6.065-4.2 11.666-14.464 10.27-27.991-.93-10.262-4.194-14.459-10.725-11.658-15.862 7.468-15.875 50.383.455 39.649zm151.008 416.971c27.981 21.449 27.993-18.667 3.743-37.318-21.452-18.652-26.594 17.267-3.743 37.318zM718.064 58.323c-2.326-20.058-18.664 19.597-6.535 13.995 2.799-.933 6.999-6.999 6.535-13.995zm320.706 735.979c-6.06-7.928-21.45-15.853-34.05-18.182-11.659-2.328-13.526.471-12.594 5.135 2.792 21.457 62.964 34.033 46.644 13.047zM725.389 516.385c-12.588-20.054-25.191 9.337-21.931 24.73 12.114 47.575 42.913 5.584 21.931-24.73zm-50.33-156.715c6.066-6.999 7.003-20.993 4.207-31.255-1.397-5.13-4.662-8.394-6.994-7.927-24.257 2.806-17.745 65.31 2.787 39.182zm17.797-236.968c.002-6.53.47-11.662-6.995-6.995-10.731 6.068-11.205 32.656-.474 25.656 4.199-3.267 7-11.664 7.469-18.661zm210.65 631.525c-1.396-11.661-12.121-23.319-24.713-30.313-10.727-6.06-16.325-5.126-16.794 4.67-3.273 24.724 44.299 49.898 41.507 25.643zM744.028 581.684c-15.388-18.187-24.26 12.136-19.133 27.527 19.111 46.174 44.78-.013 19.133-27.527zm369.832 235.452c-5.59-5.596-19.12-10.723-35.45-12.117-12.59-1.396-17.72.938-13.53 7.001 9.33 15.857 63.44 18.639 48.98 5.116zM671.305 434.305c6.532-7.466 10.268-20.528 4.675-35.453-3.729-9.328-7.927-9.793-13.059-6.526-22.395 15.866-7.948 61.108 8.384 41.979zm-.86-242.56c.003-11.195-3.262-11.661-6.527-11.193-12.596 3.269-18.205 40.588-3.742 33.586 6.998-3.267 9.799-12.597 10.269-22.393zm116.001 489.283c2.803-12.129-3.723-27.054-13.983-36.38-8.86-7.927-14.457-8.858-18.658.939-11.203 24.259 26.103 61.565 32.641 35.441zm175.823 111.431c-4.196-9.794-18.653-19.585-30.78-23.314-11.194-3.728-14.46-.462-13.995 4.669-1.873 24.257 55.962 43.831 44.775 18.645zm231.821 32.116c-7.93-3.262-25.19-4.657-37.32-3.72-9.79 1.402-14.92 2.803-5.13 8.864 15.86 9.325 63.9 3.246 42.45-5.144zM679.68 502.406c5.135-9.798 3.273-24.724-2.321-34.984-3.73-6.53-7.928-7.928-10.26-6.528-26.593 12.603-3.288 74.169 12.581 41.512zm-46.582-212.693c6.995 7.928 20.061-7.936 19.133-25.661-1.857-30.786-30.79 10.271-19.133 25.661zm196.714 442.146c-1.396-10.728-11.654-23.786-22.381-29.847-8.861-5.128-12.594-2.328-14.461 1.404-14.002 27.992 40.564 61.094 36.842 28.443zm203.818 93.697c-4.67-7.462-15.86-14.922-34.049-18.181-12.127-1.862-16.326-.462-13.53 7.001 6.058 20.056 58.299 28.436 47.579 11.18zM688.218 31.277c-.933 1.866-1.866 2.8-2.799 3.733-2.334 5.131.465 4.198-.936 7.463 3.732.932 7.934-10.73 3.735-11.196zm6.835 540.626c3.734-10.263.007-25.188-6.987-34.982-4.196-6.063-8.86-6.994-11.66-5.128-25.194 16.801 6.042 75.099 18.647 40.11zm-78.3-218.28c1.391 25.655 27.051 12.12 23.327-14.934-2.791-25.188-23.321-6.523-23.327 14.934zm35.06-250.5c-6.534 11.197-3.272 20.992 3.727 13.993 5.601-11.197 3.272-20.992-3.727-13.993zM883.44 782.687c-3.263-9.794-15.388-20.053-26.581-24.714-7.463-2.797-11.661-1.396-13.061.937-13.069 24.26 50.36 55.96 39.642 23.777zM720.221 641.865c2.335-10.729-3.725-25.188-12.118-33.582-5.596-5.595-10.261-5.594-12.127-3.728-24.262 19.599 16.77 73.696 24.245 37.31zM1109.66 841.86c-7.47-4.662-23.79-7.923-35.92-6.986-6.06.468-9.8 1.402-9.8 3.268-.94 20.525 71.37 20.036 45.72 3.718zM633.988 432.45c1.401-5.132 1.404-14.461-1.392-22.856-4.195-11.661-8.394-7.461-10.727-6.061-27.992 14.935 1.377 73.234 12.119 28.917zm-3.656-250.955c-.457-29.387-27.529 27.529-7.935 18.194 5.598-2.8 8.399-10.264 7.935-18.194zm315.131 655.75c13.995-4.669-6.057-24.721-22.848-31.246-42.909-15.847-2.344 39.65 22.848 31.246zM755.185 709.492c1.869-10.263-1.859-23.323-15.383-34.047-8.395-6.528-13.526-4.195-16.327 1.404-13.535 25.659 27.038 57.833 31.71 32.643zM1167.5 847.44c-36.86 5.142 19.58 19.585 35.44 8.386 9.33-5.601-13.99-11.191-35.44-8.386zM616.237 518.284c11.187 27.052 30.321-5.14 21.465-27.061-10.72-28.451-29.388 5.14-21.465 27.061zm-7.856-245.823c-.465-4.198 2.336-13.528.004-13.993-.931-6.531-5.129-6.063-11.661-2.329-14.466 20.995 2.32 42.447 11.657 16.322zM795.28 778.516c14.927-1.87 4.206-28.456-9.784-38.713-34.977-26.578-17.739 41.986 9.784 38.713zm226.21 75.032c-6.06-6.062-20.99-11.655-33.581-12.118-6.064-.465-10.262.936-10.263 2.802-7.004 22.859 64.364 30.767 43.844 9.316zM652.596 599.437c4.667-8.397 5.138-21.925-2.788-34.517-5.595-9.327-11.658-11.658-17.724-4.659-15.399 19.129 7.445 60.638 20.512 39.176zm-75.022-258.863c-4.2 6.998-4.205 24.724-.009 28.921 2.798 2.798 10.263-1.869 13.997-7.468 7.935-18.194-.921-41.048-13.988-21.453zm285.33 480.369c-.93-10.261-13.521-21.919-24.715-26.58-11.193-4.662-15.859-2.794-16.327 5.136-2.806 23.323 42.901 42.901 41.042 21.444zM660.038 673.136c19.118 22.851 29.857-13.07 14.47-32.19-19.118-24.717-28.925 14.003-14.47 32.19zm450.072 200.91c-5.59-4.663-15.85-8.392-33.58-7.454-11.66.47-14.93 1.871-9.8 7.933 10.26 13.991 57.84 11.178 43.38-.479zM620.098 87.273l-1.4 4.198c.933 0 1.399-.467 1.866 0l1.4-4.199c-.466-.466-1.399-.466-1.866 0zm-33.219 335.396c-3.263-7.929-6.994-9.794-12.127-4.661-14.931 13.065-5.612 48.513 8.386 34.515 5.133-6.065 8.868-16.329 3.741-29.854zm1.475-253.289c.468-3.266-2.332-1.399-3.731-.932-10.267 15.863 6.526 13.059 3.731.932zM903.48 841.922c-11.195-2.795-14.927-.928-14.463 6.068 1.393 20.991 47.104 31.239 43.843 14.914-1.863-8.396-11.19-16.789-29.38-20.982zM720.195 727.694c-1.398-5.131-6.527-13.059-14.455-19.12-10.726-7.927-12.594-2.329-13.994.004-18.667 28.926 43.829 62.492 28.449 19.116zM592.442 534.617c4.667-8.397 2.339-20.991-3.256-29.386-4.663-6.529-7.928-5.128-10.261-3.728-20.528 13.067-.018 58.774 13.517 33.114zm-35.366-280.798c-6.999 5.133-7.937 24.724-.006 19.591 6.532-5.6 8.404-24.259.006-19.591zM753.3 773.864c-23.32-13.054-18.199 20.996-2.342 32.186 22.385 15.853 32.19-16.336 2.342-32.186zm230.4 104.418c-12.128-.93-16.326 1.404-14.462 7.001 5.126 17.257 52.242 20.509 44.312 6.051-3.73-5.597-13.52-11.658-29.85-13.052zM609.211 615.777c3.267-8.864-.461-20.991-6.989-28.452-5.129-6.063-8.861-4.196-10.728-2.329-19.13 16.331 8.845 58.305 17.717 30.781zm-65.223-271.461c-12.589-17.255-19.136 37.789-3.271 20.059 2.799-2.8 7-12.597 3.271-20.059zm293.717 511.153c-1.397-7.929-7.459-16.79-23.783-21.916-10.261-3.729-14.46-3.261-14.929 6.534-.939 20.525 41.97 36.372 38.712 15.382zm236.015 45.642c-9.8 1.403-11.66 3.269-7.47 7.466 9.8 11.659 48.98 6.982 38.72-2.344-5.13-4.197-14.92-7.459-31.25-5.122zM627.387 666.616c-6.528-5.596-9.328-2.796-11.195-.93-17.731 18.664 17.243 56.437 22.849 28.447 1.868-9.329-3.259-20.989-11.654-27.517zM536.03 436.211c-11.186-27.984-23.336 42.922-2.805 22.391 6.065-6.066 6.068-15.395 2.805-22.391zm8.947-280.346c-.466 1.4-.933 2.799-.934 4.665.933 0 1.4-.467 2.333-.467.466-1.399.933-2.799.934-4.665-.467.467-1.4.467-2.333.467zm340.765 726.178c-9.795-1.396-13.527.471-12.13 7.467 2.793 17.725 43.84 25.176 39.18 9.317-2.33-6.996-10.725-14.457-27.05-16.784zM667.946 744.502c-8.395-5.595-11.66-5.127-14.928 2.804-7.469 20.526 25.176 44.772 28.914 23.314 1.402-6.997-.461-17.259-13.986-26.118zm-127.279-215c-4.196-8.861-7.928-8.86-10.26-7.46-15.397 10.733-1.413 44.314 9.32 30.783 4.199-5.132 5.601-13.062.94-23.323zm-29.77-277.069c-.467 1.399-.468 3.265-.935 4.665.933 0 1.867-.934 2.799-.934.467-1.399.468-3.265.935-4.665-1.4.467-1.866.934-2.799.934zm463.928 666.433c-36.85-2.321 3.258 23.789 21.452 17.72 11.193-4.668-4.66-16.792-21.452-17.72zm-268.654-90.412c2.329 7.929 17.719 19.586 24.716 19.117 5.131-.468 7-9.797 5.603-15.861-10.257-19.588-35.91-27.51-30.319-3.256zm-151.07-212.661c-5.129-6.062-9.327-7.461-12.594-1.396-9.8 14.464 7.451 41.047 16.318 26.584 3.267-6.065 3.737-15.861-3.724-25.188zm-68.959-254.667c1.866-.934 3.732-1.867 5.132-3.267l.002-9.329c-4.665 1.867-6.532 5.599-5.134 12.596zm301.645 516.282c-33.115-12.585-7.006 28.456 12.12 26.118 12.128-1.87 3.271-20.992-12.12-26.118zm286.853 61.02c-41.51 5.143 36.38 18.647 21.92 3.258-2.79-3.731-13.06-4.66-21.92-3.258zM583.995 704.412c-6.528-7.461-11.193-6.527-13.06-3.728-13.065 14.931 12.115 42.911 19.117 26.583 2.334-6.065 1.404-14.461-6.057-22.855zm-105.81-255.123c-.465-3.265-3.265.468-5.131 1.401-5.604 20.526 13.524 8.859 5.131-1.401zM860.07 938.493c14.923 11.19 36.848 7.918 24.257-5.605-14.923-10.258-35.914-8.852-24.257 5.605zM624.553 784.165c-26.118-12.121 5.116 48.976 12.122 21.453 1.868-7.464-3.26-17.258-12.122-21.453zM480.021 548.179c-.932-2.799-3.265.467-5.132 2.334-2.805 21.458 15.858 6.525 5.132-2.334zm200.952 310.136c-25.189.008 16.314 38.711 14.922 14.922-.465-4.198-5.594-13.059-14.922-14.922zm279.375 114.199c15.393 2.328 20.991-.473 15.862-7.468-14.924-8.392-33.118-.457-15.862 7.468zM492.119 647.065c-2.334 7.93 2.328 16.325 7.459 15.857 6.533-7.465-1.392-23.789-7.459-15.857zM749.52 932.462c11.192 10.259 24.254 7.456 17.727-3.737-11.659-9.792-23.787-7.923-17.727 3.737zm315.31 46.551c-3.26.467-.93 2.799 0 3.732 20.99 4.192 14-9.334 0-3.732zM523.344 740.814c-.935 8.397 5.126 16.325 10.724 14.457 5.6-8.398-5.124-23.788-10.724-14.457zm315.723 237.334c4.663 5.596 14.924 8.392 18.657 4.659-.464-7.93-20.054-12.588-18.657-4.659zM576.028 826.161c-2.331-2.332-3.266 2.333-4.199 4.199 6.991 20.056 18.659-.938 4.199-4.199zm61.549 82.078c1.865 1.866 2.797 3.731 2.797 5.597 4.663 4.663 5.131-.468 8.862 2.33 2.334-6.998-9.791-15.391-11.659-7.927zm317.162 104.391l-1.398-4.2c-3.265-.46-6.997-.46-10.262-.93-.934 3.74 2.797 5.6 11.66 5.13zm-5.913-500.51c5.594 11.193 10.725 9.792 11.66 3.262.938-16.793-11.18-49.442-15.382-37.779-.466.467 0 .933 0 1.866-.467-.466 0-.933-.466-1.399-3.734 8.397-.474 24.722 4.188 34.05z"/><path d="M921.277 602.155c.472-18.192-17.71-50.372-27.042-41.973 3.734-8.397-.46-21.923-.458-27.521 5.594 11.193 10.26 7.46 12.591 10.725-4.673 27.056 29.369 60.165 26.579 30.312-.464-6.064-4.193-15.392-5.591-19.59 10.723 16.323 17.722 9.324 14.929-6.535-.465-5.131-3.729-11.194-3.728-13.993 17.718 26.117 15.398-16.33 2.343-34.985-2.332-3.264-4.198-2.331-6.063-4.196.935-6.531-.928-16.792-.46-20.058 3.263 6.063 6.994 8.861 8.861 4.196.467-.467.001-.933.001-1.866.466.466-.001.933.466 1.399 3.267-5.132 1.405-19.125.94-24.256 9.789 23.786 13.064-11.199 7.006-29.389-1.865-4.664-3.73-4.664-6.063-4.197 4.201-9.797 3.74-26.123 1.41-34.985-1.398-3.265-3.265-1.398-4.197-4.197 7.001-12.596 4.677-40.117-1.855-34.517 8.399-11.198 8.874-39.652 1.409-33.119-.467.466-.467.466-.467 1.399.467-.466 0-.933 0-.933-4.198 2.334-7.001 13.53-8.401 16.795.002-7.463-3.73-6.529-4.195-8.861 11.199-15.863 7.476-42.917-4.657-25.188-1.867 2.8-3.268 7.931-4.668 10.264.002-7.463-4.196-6.996-5.129-8.861 5.133-5.133 7.001-11.664 8.402-17.728-1.407 24.723 17.725 2.793 16.797-13.999.004-12.128-12.593-6.061-16.329 10.733.47-11.661-5.594-13.992-12.126-6.527-3.267 3.267-4.668 9.331-6.068 12.597.007-24.256-24.256-1.859-19.598 20.53.465 4.198 4.664 3.73 5.129 6.995-5.132 3.267-6.534 13.063-8.868 16.329-.464-7.93-5.128-8.861-6.06-10.727 6.999-7.932 9.334-16.795 9.336-25.191-.46-19.125-18.655-11.19-20.993 9.802 0 0 .466.466 0 .933 0 0-.467.466-.933 0-.936 10.262 1.86 16.792 6.059 16.324-3.734 5.599-7.934 11.664-8.869 19.128-1.863-7.463-4.661-12.127-8.859-10.726 6.066-6.999 10.733-14.464 11.202-24.26-.466-.466 0-.932-.466-1.399 0 0 .467-.466.933 0 1.41-34.985-31.252-2.323-21.464 22.397.932 2.798 5.597 1.864 6.063 4.196-7.465 4.667-9.335 17.728-11.669 22.86-1.861-13.993-6.059-17.257-11.657-14.457-24.726 11.669-8.885 73.237 7.452 36.382 1.867-3.732 1.87-12.129 4.203-14.462 1.396 12.594 5.593 13.992 9.791 14.458-6.532 6.532-8.867 16.328-9.337 26.124-6.052-39.647-37.32 11.207-19.135 34.991 2.331 2.331 5.597.931 6.996 3.263-8.4 10.264-8.873 32.188-1.413 44.314 3.263 6.063 7.929 4.196 10.727 6.061-5.601 10.264-6.072 24.724-1.877 35.451 13.052 29.85 28.452 6.989 22.862-18.198 5.127 13.525 11.192 10.258 14.457 12.59-4.201 8.864-1.872 19.592.924 29.853-16.782-34.513-32.188 7.007-12.605 34.055 15.388 18.188 25.19-2.806 15.402-28.458 7.926 13.525 13.523 13.523 17.722 11.189-8.87 22.86 28.435 62.964 30.308 38.707zm-10.708-66.7c.468-6.997.937-13.994-.927-20.524 3.265 2.331 7.461 7.461 9.328 5.594-.003 7.464-.005 14.927 3.258 22.856-4.197-5.13-8.86-9.793-11.659-7.926zm21.001-35.924c-.002 7.463-.004 14.927 2.792 22.389-3.73-4.663-7.46-10.26-9.793-8.86-.464-6.996.004-13.061-1.393-20.057 3.264 5.13 6.528 8.394 8.394 6.528zm13.551-78.836c-1.401 6.997-2.803 13.995-1.406 21.924-.932-.933-1.398-3.265-2.797-4.664-1.865-2.798-3.731-1.865-4.196-5.13 1.867-5.598 1.869-11.195 1.404-17.259 2.331 4.197 4.662 8.395 6.995 5.129zm-13.066 18.662c-.468 6.064-1.87 12.129-.472 19.125-1.866-.932-4.662-8.395-6.529-6.528.935-5.598 1.403-10.729.938-16.793 1.865 1.865 4.197 6.063 6.063 4.196zm-14.471 35.922c-1.866-1.865-4.197-4.197-6.528-7.461 1.4-4.199.469-8.863 1.403-13.528 1.865 4.664 3.731 3.73 5.13 5.129-.002 4.665-.936 10.263-.005 15.86zm22.884-90.967c-1.868 5.598-3.735 11.197-3.271 17.26-1.865-1.865-3.262-7.929-5.595-6.528.934-5.598 2.802-11.196 3.27-17.26 1.865 4.664 3.729 8.395 5.596 6.528zm-14.465 16.331c-.935 4.665-2.335 8.863-2.337 13.528-1.398-2.332-3.73-4.664-5.129-6.063 1.401-4.198 2.335-7.93 2.802-12.128 1.399 2.332 2.797 5.596 4.664 4.663zm14.943-54.114c-2.334 5.132-5.601 11.197-6.07 17.261-1.865-2.799-2.796-7.463-5.129-6.996 2.334-5.131 4.202-10.73 5.137-16.327 1.397 5.13 2.795 9.328 6.062 6.062zm-16.797 14.932l-4.202 12.595c-1.399-2.332-2.331-5.13-3.73-5.596.467-4.198 2.801-8.397 2.802-12.129 1.865 1.865 2.797 6.53 5.13 5.13zm-18.197 14.465c-.934 3.732-2.334 6.998-3.268 10.73-.465-4.198-2.332-2.332-3.264-6.063 1.401-3.266 2.335-6.998 2.802-10.263.933 1.866 1.864 5.597 3.73 5.596zm19.141-50.85c-2.8 3.733-4.669 11.197-5.602 13.063-.465-4.198-2.33-6.063-4.196-6.063 1.867-4.665 4.667-9.33 5.602-14.928.465 4.198 1.863 8.396 4.196 7.928zm-18.196 10.734c-.934 4.665-4.2 7.931-4.668 13.063-1.866-1.866-2.797-6.53-4.663-5.596 1.867-4.666 4.667-9.331 5.135-14.462 1.399 3.265 1.864 7.463 4.196 6.995zm-19.128 11.668c-1.867 4.665-4.667 8.397-5.135 13.529-1.866-.933-3.73-7.463-6.063-5.13 3.267-6.065 5.601-12.129 7.003-18.194.464 6.997 2.329 9.795 4.195 9.795zm9.808-40.585c3.733-5.599 7.466-11.198 8.401-17.728.931 6.53 2.329 11.66 6.061 9.793-3.733 4.666-7 9.798-8.401 15.863-1.398-5.131-2.796-9.329-6.061-7.928zm-45.266 62.986c3.734-6.532 7.934-12.597 8.402-20.527 1.865 5.597 4.195 10.727 6.994 10.726-2.8 5.599-5.6 10.264-6.535 16.795-2.332-3.265-4.662-10.261-8.861-6.994zm-20.077 62.978c4.201-8.864 7.469-16.795 7.005-26.59 2.797 6.529 6.06 13.525 9.325 13.058-3.267 7.93-6.068 15.395-4.672 24.257-3.729-7.462-6.992-13.525-11.658-10.725zm25.195-18.666c1.867-5.598 4.668-11.197 5.136-17.261 1.865 2.798 3.263 6.996 5.129 6.996.465 6.063-3.735 10.263-3.27 16.327-2.332-2.332-4.196-6.996-6.995-6.062zm25.664-28.462c.932 1.866 1.864 4.664 3.264 4.197-.002 3.732-1.868 7.464-2.803 11.196-.932-1.865-2.331-4.197-3.73-3.731.934-3.731 2.335-7.93 3.269-11.662zm-42.011 97.037c3.268-8.864 5.603-17.728 4.673-27.057 3.263 6.996 6.993 13.526 10.725 11.659-2.335 7.93-4.203 16.327-1.874 26.122-5.129-7.928-9.325-13.991-13.524-10.724zm23.329-21.465c.935-5.598 3.735-11.196 2.804-16.793 2.332 2.331 4.663 7.462 6.995 6.995-.468 5.131-2.335 10.729-1.404 16.326-2.798-2.798-5.595-8.394-8.395-6.528zm20.997-19.131c.001-3.732 1.402-7.93 1.869-11.196 1.398 5.131 3.265 2.332 4.663 6.53-1.4 2.332-1.401 6.064-1.402 8.863-1.399-.466-3.264-5.13-5.13-4.197zm20.533-28.927c.932 3.732 2.331 3.265 3.264 4.197-.001 4.665-1.402 8.864-1.87 13.062-1.398-4.198-2.798-3.731-4.196-6.063 1.867-3.732.935-7.463 2.802-11.196zm-30.35 98.433c1.402-6.998 3.736-13.995 2.339-20.992 3.265 1.399 6.994 7.928 9.327 5.595-.468 7.93-1.87 15.86 1.392 24.722-4.662-6.529-9.325-13.058-13.058-9.325zm19.598-22.396c.002-5.598.936-10.263 1.405-16.327 2.331 4.198 4.196 6.063 6.062 6.062-.002 5.598-.936 10.263.461 16.326-2.797-2.798-5.595-7.461-7.928-6.061z"/><path d="M944.23 283.555c-7.933 8.865-9.34 34.521-.941 27.988.466-.466.466-.466.466-1.399-.466.466 0 .933 0 .933 11.665-10.732 11.207-40.119.475-27.522z"/><path d="M942.821 313.876c.001-.933.468-2.332.934-2.799 0 .933-.001 1.866-.934 2.799z"/></g><path d="M719.786 536.911s-14.931 13.999-7.947 55.512c-5.127-14.459-27.957-99.815 23.378-180.994-5.136 16.327-6.075 34.053-6.075 34.053s-17.741 51.316-14.952 83.968c2.332 3.264 5.596 7.461 5.596 7.461z" fill="#F5F5F5"/><path d="M761.293 563.487s32.207-70.445 47.6-70.916c-4.663-3.73-17.246-42.443-21.902-69.496-1.865-3.731-12.594-4.195-22.391.939-9.33 4.668-30.325 16.336-34.991 21.935s-21.478 69.975-14.952 83.967c0-.933 5.593 14.925 46.636 33.571zm90.557-210.868s64.839-3.284 85.824 14.901c3.734-5.598 20.53-17.731 55.519-32.202 1.401-4.199-14.92-22.386-37.775-27.51-22.855-6.057-78.832-1.376-88.163 6.09-9.332 7.467-17.27 34.057-15.405 38.721z" fill="#DADADA"/><path d="M754.729 675.44s51.756 68.554 141.78 79.256c-7.929-3.263-11.659-7.927-13.523-13.524-4.198-.465-10.263.936-19.124-2.326-8.862-3.263-58.3-25.638-66.225-41.962-5.131-1.398-17.26 3.271-42.908-21.444z" fill="#F5F5F5"/><path d="M1025.86 704.903c.12-.034.21-.062.29-.085 13.23 7.167 22.02 9.174 29.13 8.58 5.67-.474 10.22-2.611 15-4.982-12.68 10.359-26.61 18.526-37.67 24.22-6 3.086-11.15 5.445-14.8 7.031a163.973 163.973 0 01-5.4 2.248c-.13.05-.23.088-.29.113l-.08.028-.02.007v.002h0l.18.468-.18-.468-.03.011-.03.015c-15.774 8.355-39.371 13.369-61.677 15.297-11.146.964-21.952 1.156-31.276.614-9.332-.543-17.142-1.82-22.319-3.773-5.339-2.088-8.789-3.991-10.967-5.656-2.181-1.668-3.045-3.065-3.299-4.134-.251-1.052.07-1.871.465-2.444a3.86 3.86 0 01.78-.827l.017-.013c23.279-7.925 34.061-13.306 39.315-17.262 2.644-1.991 3.908-3.635 4.656-5.076.371-.714.608-1.367.821-1.952l.001-.003c.165-.455.311-.86.492-1.242 17.123 4.317 41.379 1.616 61.346-2.151 10.075-1.901 19.075-4.079 25.565-5.781 3.25-.851 5.86-1.584 7.67-2.104a169.717 169.717 0 002.31-.681z" fill="#F5F5F5" stroke="#DADADA"/><path d="M890.452 656.192l.026-.167c1.218-1.49 3.612-4.987 6.584-9.507 3.05-4.64 6.727-10.387 10.403-16.221 7.347-11.658 14.703-23.68 17.046-27.896 2.056-3.55 3.52-6.809 4.734-9.51.31-.691.603-1.344.886-1.957.7-1.515 1.327-2.765 1.973-3.72.609-.899 1.205-1.492 1.847-1.805 3.963.558 11.248.019 19.929-1.061 8.817-1.098 19.147-2.764 29.062-4.458 4.975-.851 9.838-1.706 14.356-2.501 4.492-.792 8.652-1.523 12.232-2.128 3.59-.606 6.58-1.083 8.75-1.365 1.09-.141 1.95-.231 2.58-.266.32-.017.56-.02.74-.009.09.005.15.013.19.02l.02.006.01.004c-.01-.002-.01-.001 0 .003.01.011.06.049.16.139.12.109.27.264.46.465.37.401.88.969 1.49 1.685 1.23 1.431 2.89 3.44 4.86 5.861 3.92 4.842 9.03 11.323 14.25 18.112 5.21 6.789 10.53 13.881 14.86 19.945 4.34 6.078 7.66 11.084 8.92 13.719.57 1.197.65 3.008.24 5.37-.41 2.345-1.3 5.156-2.56 8.295-2.52 6.277-6.53 13.803-11.19 21.43-9.33 15.267-21.2 30.845-28.84 37.561v.002c-.97.859-2.84 1.745-5.48 2.625-2.61.873-5.92 1.718-9.67 2.527-7.52 1.616-16.837 3.074-26.103 4.301-18.543 2.454-36.823 3.971-40.052 3.972-6.375.002-10.876-2.721-13.107-5.835-.21-.341-.858-1.18-1.8-2.362a516.886 516.886 0 00-3.848-4.74c-2.602-3.175-5.871-7.129-9.308-11.287l-2.038-2.465c-8.344-10.095-17.069-20.685-19.387-23.93-2.267-3.175-3.062-6.465-3.288-8.966a18.214 18.214 0 01-.028-3.036c.028-.368.064-.656.091-.85z" fill="#F5F5F5" stroke="#DADADA"/><path d="M801.715 647.036a.706.706 0 01-.037-.015c-11.795-12.756-21.415-31.882-28.212-48.682-6.785-16.77-10.723-31.135-11.206-34.416.009-.204.104-.597.326-1.208.227-.621.563-1.41.997-2.348.869-1.874 2.116-4.312 3.627-7.133 3.023-5.642 7.089-12.795 11.259-19.996 4.141-7.15 8.389-14.354 11.815-20.165 3.468-5.881 6.095-10.336 6.919-11.865 1.562-2.9 4.487-4.941 7.078-6.266a28.046 28.046 0 014.371-1.781l.174-.052.103-.029.004-.001c1.603.18 5.693.715 10.859 1.391 1.934.253 4.018.526 6.179.807 8.045 1.047 17.145 2.211 23.448 2.91h0l.014.001c5.574.463 15.935 1.973 25.321 3.544 4.691.785 9.131 1.585 12.601 2.275 1.735.345 3.224.662 4.379.936.918.217 1.602.402 2.028.547.014.134.039.277.069.423.064.308.165.673.298 1.085.264.824.662 1.869 1.173 3.099 1.022 2.46 2.507 5.689 4.304 9.419 3.595 7.463 8.449 16.957 13.374 26.373a2057.474 2057.474 0 0013.807 25.928c3.654 6.741 6.338 11.586 7.036 12.722-.074.45-.258 1.069-.557 1.853-.336.878-.806 1.933-1.393 3.143-1.175 2.419-2.812 5.431-4.767 8.835-3.91 6.805-9.083 15.152-14.36 23.401-10.564 16.513-21.514 32.581-23.591 35.12-.932 1.138-2.935 2.046-5.958 2.649-2.994.596-6.878.874-11.437.846-9.116-.055-20.863-1.33-33.438-3.655-12.575-2.325-21.768-4.766-27.813-6.625a123.444 123.444 0 01-6.736-2.262 58.087 58.087 0 01-2.058-.808z" fill="#F5F5F5" stroke="#DADADA"/><path d="M897.986 495.809s-6.065 6.066-2.802 13.062c2.797 6.53 33.564 70.892 33.564 70.892s4.195 7.928 12.592 6.993c8.397-.935 71.84-10.284 74.64-10.285 3.26-.467 9.33-1.868 10.73-9.798 1.4-7.931 12.15-77.437 12.15-77.437s1.4-6.064-7.46-11.193c-8.4-4.662-66.693-38.696-71.358-37.761-6.996-.465-49.456 39.197-62.056 55.527z" fill="#DADADA"/><path d="M957.981 439.272l.088.327a20.67 20.67 0 00-1.216.974 98.313 98.313 0 00-2.558 2.273c-2.026 1.85-4.665 4.344-7.707 7.268-6.083 5.851-13.784 13.435-21.426 21.077-7.643 7.642-15.227 15.344-21.077 21.427-2.925 3.042-5.418 5.681-7.269 7.707a98.313 98.313 0 00-2.273 2.558c-.407.48-.735.886-.962 1.199-3.306-1.03-9.527-2.1-17.122-3.171-7.9-1.114-17.337-2.234-26.636-3.31l-5.609-.647c-7.324-.842-14.346-1.65-20.222-2.398-3.682-.469-6.91-.914-9.477-1.328-2.58-.416-4.458-.797-5.464-1.132l-.007-.002-.007-.002c-.472-.141-1.005-.492-1.592-1.085-.584-.59-1.194-1.392-1.825-2.392-1.261-1.998-2.57-4.733-3.883-7.992-2.625-6.516-5.24-15.063-7.509-23.857-2.268-8.791-4.186-17.814-5.42-25.275-.617-3.731-1.062-7.066-1.295-9.784-.234-2.733-.249-4.795-.028-6.006.103-.568.393-1.313.878-2.229.482-.909 1.142-1.959 1.961-3.132 1.639-2.344 3.895-5.149 6.591-8.244 5.39-6.189 12.509-13.513 19.88-20.593 7.371-7.08 14.987-13.909 21.367-19.112 3.191-2.601 6.067-4.791 8.445-6.401 2.4-1.625 4.234-2.616 5.359-2.884 2.387-.569 6.94-.863 12.63-.923 5.672-.06 12.425.112 19.181.46 6.756.347 13.509.869 19.182 1.507 5.683.64 10.236 1.392 12.63 2.187 4.431 1.632 9.286 3.482 13.495 5.961 4.213 2.481 7.727 5.561 9.532 9.623.916 2.062 2.595 7.331 4.608 14.121 2.009 6.774 4.338 15.02 6.551 23.007a3223.388 3223.388 0 017.697 28.314c.221.824.392 1.469.509 1.909z" fill="#F5F5F5" stroke="#DADADA"/><path d="M1077.61 379.606s24.24 49.438 17.7 73.696c9.33 3.729 24.25 14.919 47.1 55.495 4.2-6.066 7.93-22.859 7.94-29.39 0-6.53-23.3-74.627-42.42-89.081-19.12-14.455-29.85-13.052-30.32-10.72z" fill="#DADADA"/><path d="M1049.65 476.665c-5.26 2.64-9.38 4.766-11.13 5.834-.36-.454-.87-.95-1.49-1.479-.81-.697-1.84-1.475-3.06-2.321-2.43-1.691-5.62-3.668-9.31-5.816-7.38-4.297-16.79-9.299-26.204-14.108-9.42-4.81-18.854-9.43-26.284-12.965-6.915-3.29-12.129-5.656-13.962-6.346-.005-.065-.012-.131-.019-.198a13.02 13.02 0 00-.137-.89 57.892 57.892 0 00-.583-2.718c-.518-2.208-1.282-5.178-2.211-8.645-1.858-6.936-4.378-15.874-6.912-24.707a4074.919 4074.919 0 00-6.998-24.09c-.957-3.261-1.756-5.971-2.316-7.865l-.65-2.197-.171-.578-.024-.08c.712-3.505 3.883-7.214 8.551-10.875 4.694-3.682 10.799-7.238 17.112-10.411 12.543-6.303 25.825-11.052 30.309-12.25 18.989 2.336 40.089 12.99 56.599 23.453 8.26 5.235 15.36 10.412 20.45 14.453 2.54 2.02 4.58 3.753 6.01 5.065.71.657 1.27 1.203 1.66 1.624.19.211.34.385.44.521l.12.164c.02.042.03.06.03.058l.02.053.02.048c21.7 35.547 17.68 70.18 17.19 72.824-.02.017-.04.043-.07.077-.09.09-.23.209-.43.358-.39.295-.97.672-1.71 1.123-1.49.899-3.59 2.066-6.14 3.418-5.09 2.702-11.89 6.127-18.86 9.598-2.71 1.349-5.44 2.705-8.11 4.028-4.19 2.08-8.22 4.079-11.73 5.84zm47.06-24.461v0z" fill="#F5F5F5" stroke="#DADADA"/><path d="M1022.43 574.897l-.28-.372c1.17-3.001 2.74-9.696 4.43-18.14 1.75-8.733 3.63-19.395 5.36-29.924 1.72-10.528 3.28-20.927 4.39-29.133.55-4.102.99-7.659 1.27-10.411.25-2.352.38-4.149.38-5.194.31-.074.67-.192 1.06-.34.63-.234 1.39-.561 2.25-.964 1.74-.807 3.95-1.933 6.49-3.272 3.28-1.736 7.13-3.838 11.24-6.078 2.22-1.216 4.52-2.472 6.85-3.733 6.62-3.587 13.44-7.214 19.37-10.06 5.95-2.854 10.92-4.889 13.87-5.346 1.3-.152 2.87.336 4.68 1.435 1.8 1.095 3.78 2.76 5.87 4.855 4.17 4.188 8.71 10.034 13.05 16.291 8.67 12.517 16.46 26.593 18.77 32.146v.009c.61 1.384 1.08 3.588 1.39 6.464.31 2.864.46 6.354.45 10.286-.02 7.862-.66 17.462-1.89 27.3-1.22 9.838-3.03 19.903-5.37 28.695-2.35 8.806-5.22 16.287-8.55 20.994h0v.009c-6.7 9.921-20.6 19.44-33.46 25.788-6.43 3.17-12.56 5.533-17.36 6.755-2.41.612-4.46.932-6.03.933-1.61.001-2.58-.331-3.01-.846-2.32-2.789-13.74-17.468-24.58-31.465-5.42-6.995-10.7-13.815-14.62-18.886-1.96-2.536-3.58-4.635-4.71-6.099l-1.31-1.697z" fill="#F5F5F5" stroke="#DADADA"/><path d="M1064.47 630.566s5.13 3.264.46 14.46c0 0-24.27 50.386-38.73 61.119 10.26 7.46 29.38 12.585 40.58 4.186 11.66-7.934 71.85-48.534 58.81-106.371-10.73 7.933-48.06 34.999-61.12 26.606zm-260.755 18.271s-2.334 7.93-4.671 20.525c-1.402 9.797-3.273 28.456-.476 32.186 6.528 8.395 43.371 34.039 74.155 40.56 12.128 2.795 56.914-17.742 59.248-24.74.934-2.799-45.232-48.965-42.429-60.161-.467-.466-17.262 7.935-85.827-8.37z" fill="#DADADA"/><path d="M718.812 536.633c1.54 1.438 4.427 3.521 7.969 5.882 3.812 2.54 8.424 5.429 13.032 8.229 8.988 5.459 17.991 10.594 21.041 12.149.567 2.567 2.76 9.107 5.972 17.62a577.452 577.452 0 0012.654 30.749c4.684 10.779 11.004 19.908 15.847 26.503.821 1.118 1.597 2.16 2.315 3.124 1.408 1.89 2.593 3.48 3.451 4.752.651.963 1.088 1.705 1.294 2.233.105.267.131.432.126.519l-.002.024-.13.078-.063.156c-.49 1.225-1.111 4.11-1.765 7.871-.659 3.784-1.361 8.515-2.005 13.476-1.249 9.632-2.282 20.169-2.341 26.354-23.298-1.604-41.187-18.798-53.312-35.776-6.099-8.541-10.718-16.998-13.813-23.321a156.251 156.251 0 01-3.49-7.622 97.68 97.68 0 01-1.095-2.683l-.054-.142-.014-.035-.003-.009-.001-.002-.468.175.468-.175-.005-.015-.007-.014c-16.29-36.323-17.529-58.952-14.755-72.459 1.387-6.751 3.779-11.234 5.808-14.02 1.015-1.394 1.941-2.365 2.608-2.985.306-.283.557-.493.738-.636zm431.698-53.386c.03.112.06.226.1.344.67 2.378 1.54 5.905 2.41 10.421 1.74 9.032 3.43 22.016 3.4 37.694-.07 30.698-6.77 71.714-32.83 113.61.07-.295.14-.609.21-.94.58-2.534 1.28-6.107 1.81-10.266 1.05-8.249 1.41-18.851-1.35-28.229.19-.335.52-.81.95-1.439 2.09-3.058 6.69-9.762 10.6-21.847 4.86-15.032 8.71-38.48 5.71-74.105.08-.095.19-.232.32-.409.29-.371.69-.916 1.17-1.621.95-1.41 2.2-3.459 3.41-6.023 2.08-4.406 4.03-10.349 4.09-17.19zM956.082 306.172c43.548 3.197 79.918 21.607 105.678 40.201 13.18 9.51 23.57 19.063 30.73 26.641 3.58 3.789 6.34 7.08 8.24 9.622.94 1.271 1.67 2.349 2.17 3.204.08.133.15.26.22.379-.98-.566-2.18-1.136-3.5-1.687-2.04-.854-4.42-1.675-6.83-2.378-2.4-.703-4.84-1.29-7-1.672-2.03-.357-3.84-.542-5.17-.461-3.8-4.212-10.29-9.528-18.28-15.219-8.12-5.781-17.81-11.967-27.85-17.801-10.06-5.844-18.96-9.593-26.06-11.529-3.56-.968-6.67-1.485-9.264-1.581-2.248-.083-4.136.15-5.581.708-.707-3.687-3.454-7.29-7.108-10.611-3.885-3.532-8.876-6.817-13.787-9.622-4.915-2.808-9.769-5.146-13.393-6.782a178.841 178.841 0 00-3.215-1.412zM773.843 420.56c-8.201 2.503-21.335 8.95-43.275 23.977-.008-.558-.021-1.155-.036-1.787-.161-7.134-.423-18.69 6.043-29.194l.006-.009.005-.01c6.933-12.474 46.954-78.239 130.049-99.662-3.607 3.987-7.099 9.58-9.588 15.877-2.724 6.894-4.26 14.667-3.4 22.135l-.322.191a138.6 138.6 0 00-1.718 1.046c-1.485.919-3.62 2.273-6.225 4.016-5.208 3.485-12.293 8.527-19.804 14.752-14.882 12.336-31.502 29.376-38.423 48.218 0 0 0 0 0 0-.974-.34-2.252-.786-4.099-.922-2.153-.158-5.059.103-9.213 1.372z" fill="#F5F5F5" stroke="#DADADA"/></svg>