<svg width="76" height="111" fill="none" xmlns="http://www.w3.org/2000/svg"><g clip-path="url(#clip0_1_344)"><path d="M36.722 42.809s-5.918 1.653-8.967 4.111l-3.812-.045s3.274.537 3.453 1.207c.18.67.628 6.658.628 6.658s-1.57 2.502-3.094 4.647c1.614-1.787 3.677-3.485 3.856-3.574.314-.09 8.609 1.608 8.788 1.832.135.178 2.377 4.29 3.497 6.792-.627-1.832-1.703-5.094-2.017-5.943-.538-1.43-.404-1.296 0-2.056.358-.76 2.78-3.798 4.394-6.524a.606.606 0 00-.09-.715c-1.48-1.475-5.784-5.943-5.784-6.122-.045-.223 1.838-3.173 2.377-3.396 2.017-.804 5.873 0 6.86.134-3.05-1.296-6.278-1.877-9.506-1.832l1.3 1.072c.225.134.314.447.135.67l-2.018 3.084zm1.345 12.914c-.224.134-1.076-.09-1.076-.178.359-.18 1.928-1.252 1.928-1.252s-.627 1.296-.852 1.43zm3.901-6.166l-2.825 4.11 1.435-3.976c-2.152-1.162-9.73.536-9.954 3.306l6.053 2.458-7.129-1.43c-.134-.76-.493-4.915-.538-6.211a.72.72 0 01.27-.581c.806-.626 3.317-2.324 6.725-3.083.224-.045.493 0 .672.178l5.291 5.228zm0 0l-.09-.09c.045.09.09.09.09.09zm16.007.089c-1.48-2.011-3.183-4.87-7.802-7.597.449.268 2.153 1.654 3.856 4.648.314.536-1.39 3.53-1.524 3.664-.09.09-5.156-.447-7.578-.67 2.467.536 7.13 1.295 7.533 1.787 2.287 2.86 3.811 7.775 3.677 8.714-.09.715-4.304 6.703-4.977 6.926-1.031.358-8.788-.536-9.46-.894v.045c.044.402-5.068 6.792-5.068 6.792-.268.313-.627.492-.717.581.942 1.52 4.977 5.005 6.008 5.899-1.838-.85-4.663-2.592-6.277-3.71-.762-.49-1.614-.803-2.51-.848-2.512-.134-5.292-.939-5.74-.805-.538.18-3.408 2.056-3.408 2.056 0-.447 1.794-2.19 2.646-3.039a.994.994 0 01.852-.268c2.197.358 4.349.626 5.873.536-1.838-.312-3.9-.893-5.066-1.25a2.29 2.29 0 01-1.345-1.073c-1.435-2.503-2.736-5.318-3.498-7.105-.269-.67-.314-1.385-.045-2.056l.314-.849-.448.581a1.749 1.749 0 01-1.435.581c-1.524-.179-4.035-.536-4.125-.58 0 0-.045-.135-.135-.358-2.466-9.116 3.946-15.238 3.946-15.238-.448.804-1.031 1.877-1.48 3.083.583-.715 1.032-1.296 1.839-1.832.628-.402 1.076-1.028 1.345-1.698.269-.76.762-1.788 1.39-2.592.717-.894 1.794-2.1 4.618-3.262-4.125 1.34-6.95 3.53-9.82 7.329-7.622 10.143-5.425 24.532 4.843 32.218 10.268 7.641 24.75 5.63 32.373-4.468 5.65-7.597 5.874-17.517 1.345-25.248zM16.231 64.973s-.896-3.977-.269-8.311c0 0 .09 3.932.852 6.032l-.583 2.28zm.942.536l.852-2.636 3.946.715s1.39 3.664 3.317 7.373c0 0-3.183-.983-6.008-5.273a5.022 5.022 0 01-.538-.938c-.18-.313-.583-.402-.852-.134l-.717.893zm1.659 5.497c3.856 4.2 6.77 7.641 7.084 7.954-5.873-3.486-7.084-7.954-7.084-7.954zm20.76 4.915l-2.152-2.19s4.528-5.898 4.932-6.121c3.542.491 8.43.849 8.43.849s-2.556 2.145-7.175 3.843c-1.659.625-2.825 1.027-3.766 1.25-.538.135-.852.716-.673 1.207l.404 1.162zm10.492 2.726c-1.57 1.207-4.35 2.234-4.977 2.234-.852 0-2.018-.58-2.018-.58 4.529-.716 8.205-2.816 8.205-2.816-.224.358-.672.76-1.21 1.162zm3.676-27.66c.045-.18 1.166-3.04 1.166-3.04.18 0 1.66.984 2.242 2.235 0 0-.762-1.162-1.614-1.117-.224 0-.359.313-.359.715 0 .626.449 1.966 1.166 3.62.852 1.966 1.525 4.423 1.883 5.004.449.626 1.839 1.52 1.839 1.52l-2.332-.358a.868.868 0 01-.717-.625c-1.076-4.2-3.318-7.82-3.273-7.955zm4.53 10.68c-.36.133-.673.446-.898.804-2.017 3.485-3.81 5.407-4.08 5.988-.359.893-1.21 5.898-1.793 7.91.09-1.565.583-7.91.717-8.313.18-.491 4.932-7.283 4.932-7.283 0-.045 2.87 0 2.87 0s-.897.536-1.749.893z" fill="#fff"/><path fill-rule="evenodd" clip-rule="evenodd" d="M60.307 8.446l1.031 3.128h3.318l-2.69 1.921 1.031 3.128-2.645-1.921-2.69 1.921 1.03-3.128-2.69-1.921h3.318l.987-3.128zm-44.614 0l1.031 3.128h3.319l-2.69 1.921 1.03 3.128-2.69-1.966-2.69 1.921 1.031-3.127-2.69-1.922h3.318l1.031-3.083zM38.56 0l1.032 3.128h3.318L40.22 5.05l1.03 3.128-2.69-1.922-2.69 1.922 1.032-3.128-2.69-1.922h3.317L38.56 0z" fill="#fff"/><path fill-rule="evenodd" clip-rule="evenodd" d="M54.926 20.377c6.367 2.324 13.137 3.62 20.042 3.709L76 25.114v16.265L54.926 20.377z" fill="#F4DDCC"/><path fill-rule="evenodd" clip-rule="evenodd" d="M28.069 17.338a56.587 56.587 0 009.864-6.435l38.022 37.894v16.266L64.208 53.355c-1.3-4.469-3.722-8.446-6.905-11.663A27.225 27.225 0 0045.6 34.81L28.068 17.338z" fill="#E9BB99"/><path fill-rule="evenodd" clip-rule="evenodd" d="M65.284 61.8L76 72.48v8.134a54.64 54.64 0 01-2.824 5.317L61.652 74.447c2.197-3.709 3.498-8.044 3.632-12.646zM10.268 23.282A58.205 58.205 0 0023 19.662l14.124 14.076a26.84 26.84 0 00-12.733 3.62L10.268 23.282z" fill="#DF9A66"/><path fill-rule="evenodd" clip-rule="evenodd" d="M58.559 78.826L70.172 90.4c-2.332 3.083-4.933 5.943-7.847 8.445L49.187 85.752a26.085 26.085 0 008.071-5.585c.493-.447.897-.894 1.3-1.34zM0 36.732V24.086c1.21 0 2.376-.045 3.587-.09l16.5 16.445c-.493.402-.941.85-1.345 1.251a27.935 27.935 0 00-5.605 8.044L0 36.732z" fill="#D47833"/><path fill-rule="evenodd" clip-rule="evenodd" d="M43.582 87.585L58.2 102.152c-3.273 2.324-6.77 4.29-10.492 5.809l-23.72-23.638c4.08 2.457 8.878 3.843 14.034 3.843 1.884 0 3.767-.224 5.56-.581zM0 60.415v-16.31l11.254 11.216c-.358 1.788-.583 3.664-.583 5.586 0 5.094 1.39 9.876 3.856 13.942L0 60.415z" fill="#C95600"/><path fill-rule="evenodd" clip-rule="evenodd" d="M0 67.789l42.237 42.094c-1.39.402-2.825.759-4.26 1.072a54.761 54.761 0 01-19.145-8.088L4.439 88.478C2.779 86.021 1.3 83.384 0 80.658v-12.87z" fill="#974000"/></g><defs><clipPath id="clip0_1_344"><path fill="#fff" d="M0 0h76v111H0z"/></clipPath></defs></svg>