<svg xmlns="http://www.w3.org/2000/svg"><symbol id="location" viewBox="0 0 28 28"><path d="M14 2.333c-4.9 0-9.334 3.757-9.334 9.567 0 3.71 2.858 8.073 8.563 13.101a1.187 1.187 0 001.552 0c5.693-5.028 8.552-9.391 8.552-13.101 0-5.81-4.434-9.567-9.334-9.567zM14 14a2.34 2.34 0 01-2.334-2.334 2.34 2.34 0 012.333-2.333 2.34 2.34 0 012.334 2.333A2.34 2.34 0 0113.999 14z"/></symbol><symbol id="phone" viewBox="0 0 28 28"><path d="M23.275 24.5c-2.508 0-4.953-.56-7.335-1.678A22.27 22.27 0 015.178 12.06C4.06 9.677 3.5 7.233 3.5 4.725c0-.35.117-.642.35-.875.233-.233.525-.35.875-.35H9.45c.272 0 .515.087.73.263.213.175.34.398.378.67l.759 4.084c.039.272.034.52-.015.744-.05.224-.161.423-.335.597l-2.8 2.859a19.375 19.375 0 003.062 3.937 21.342 21.342 0 004.054 3.18l2.742-2.742a1.63 1.63 0 01.686-.393c.282-.088.56-.112.83-.074l4.026.817c.272.058.495.19.67.394.176.205.263.443.263.714v4.725c0 .35-.117.642-.35.875-.233.233-.525.35-.875.35z"/></symbol><symbol id="email" viewBox="0 0 28 28"><path d="M25.667 4.667H2.334v18.667h23.333V4.667zm-2.333 4.667l-9.333 5.833-9.334-5.833V7l9.334 5.834L23.334 7v2.334z"/></symbol><symbol id="instagram" viewBox="0 0 28 28"><path d="M19.25 2.625H8.75A6.132 6.132 0 002.625 8.75v10.5a6.132 6.132 0 006.125 6.125h10.5a6.131 6.131 0 006.125-6.125V8.75a6.131 6.131 0 00-6.125-6.125zM14 19.25a5.25 5.25 0 110-10.499 5.25 5.25 0 010 10.499zm6.563-10.5a1.313 1.313 0 110-2.625 1.313 1.313 0 010 2.625zM17.5 14a3.5 3.5 0 11-7 0 3.5 3.5 0 017 0z"/></symbol><symbol id="facebook" viewBox="0 0 28 28"><path d="M14 2.333C7.558 2.333 2.335 7.556 2.335 14c0 5.823 4.266 10.649 9.844 11.524v-8.152H9.215V14h2.963v-2.57c0-2.924 1.741-4.539 4.407-4.539 1.276 0 2.61.228 2.61.228v2.87h-1.47c-1.45 0-1.9.9-1.9 1.822V14h3.234l-.517 3.371h-2.718v8.153c5.576-.875 9.842-5.701 9.842-11.524 0-6.444-5.222-11.667-11.665-11.667z"/></symbol><symbol id="viber" viewBox="0 0 28 28"><path fill-rule="evenodd" clip-rule="evenodd" d="M19.455 3.066a25.55 25.55 0 00-11.148 0l-.395.087A5.723 5.723 0 003.614 7.33a22.712 22.712 0 000 11.173 5.722 5.722 0 004.018 4.107l.542 3.238a.584.584 0 00.964.339l3.186-2.85a25.544 25.544 0 007.13-.569l.398-.087a5.722 5.722 0 004.297-4.177 22.72 22.72 0 000-11.173 5.723 5.723 0 00-4.299-4.177l-.395-.088zM9.292 7.236a.959.959 0 00-.627.123H8.65c-.437.257-.832.58-1.168.96-.28.323-.431.65-.471.965-.023.187-.007.376.048.554l.02.012c.316.925.726 1.815 1.228 2.653a15.6 15.6 0 002.369 3.237l.027.04.045.033.027.031.032.028a15.828 15.828 0 003.246 2.38c1.348.734 2.165 1.08 2.657 1.225v.007c.143.044.274.064.405.064.419-.03.815-.2 1.125-.483.38-.336.7-.731.95-1.171v-.008c.234-.444.155-.861-.183-1.145a14.15 14.15 0 00-2.195-1.575c-.523-.283-1.053-.112-1.268.175l-.458.579c-.236.287-.663.247-.663.247l-.012.007c-3.186-.813-4.037-4.039-4.037-4.039s-.04-.438.256-.662l.574-.462c.275-.224.467-.754.171-1.277a13.78 13.78 0 00-1.571-2.193.873.873 0 00-.513-.307l.002.001zm5.383-1.403a.583.583 0 000 1.167c1.476 0 2.7.481 3.67 1.405a5.17 5.17 0 011.141 1.76c.256.657.372 1.358.342 2.06a.581.581 0 00.559.608.584.584 0 00.608-.559 6.253 6.253 0 00-.421-2.532 6.349 6.349 0 00-1.405-2.163l-.012-.011c-1.203-1.15-2.725-1.735-4.482-1.735zm-.04 1.918a.583.583 0 100 1.167h.02c1.064.075 1.839.43 2.381 1.012.557.6.845 1.345.823 2.267a.584.584 0 001.166.027c.029-1.21-.361-2.254-1.133-3.087v-.002c-.79-.847-1.874-1.295-3.178-1.383l-.02-.002h-.059zm-.022 1.954a.584.584 0 10-.06 1.164c.487.026.799.173.995.37.197.199.344.517.37 1.015a.583.583 0 101.165-.062c-.037-.7-.257-1.318-.706-1.773-.451-.455-1.066-.677-1.764-.714z"/></symbol><symbol id="telegram" viewBox="0 0 28 28"><path d="M14 2.333C7.56 2.333 2.335 7.56 2.335 14c0 6.44 5.227 11.666 11.667 11.666 6.44 0 11.666-5.226 11.666-11.666S20.441 2.333 14.001 2.333zm5.414 7.933c-.175 1.844-.933 6.324-1.318 8.389-.164.875-.49 1.166-.794 1.201-.676.059-1.19-.443-1.843-.875-1.027-.676-1.61-1.096-2.602-1.75-1.155-.758-.408-1.178.257-1.855.175-.175 3.162-2.893 3.22-3.138a.233.233 0 00-.058-.21c-.07-.058-.164-.035-.245-.023-.105.023-1.739 1.108-4.924 3.255-.466.315-.886.478-1.26.466-.42-.011-1.213-.233-1.808-.431-.735-.234-1.307-.362-1.26-.77.023-.21.315-.42.863-.642 3.407-1.482 5.67-2.462 6.802-2.928 3.243-1.354 3.908-1.587 4.352-1.587.093 0 .315.023.455.14a.464.464 0 01.163.315c-.012.07.012.28 0 .443z"/></symbol><!--!> icons for table (check, neutral, danger)--><symbol viewBox="0 0 20 21" fill="none" id="neutralIcon"><g clip-path="url(#clip0_263_5819)"><path d="M10 20.003a10 10 0 110-20 10 10 0 010 20zm5-11H5v2h10v-2z" fill="#9F9F9F"/></g><defs><clipPath id="clip0_263_5819"><path fill="#fff" transform="translate(0 .003)" d="M0 0h20v20H0z"/></clipPath></defs></symbol><symbol viewBox="0 0 20 21" fill="none" id="dangerIcon"><g clip-path="url(#clip0_263_5825)"><path d="M2.93 17.073A10 10 0 1116.824 2.688 10 10 0 012.93 17.073zm8.47-7.07l2.83-2.83-1.41-1.41L10 8.593l-2.83-2.83-1.41 1.41 2.83 2.83-2.83 2.83 1.41 1.41 2.83-2.83 2.83 2.83 1.41-1.41-2.83-2.83h-.01z" fill="#A80000"/></g><defs><clipPath id="clip0_263_5825"><path fill="#fff" transform="translate(0 .003)" d="M0 0h20v20H0z"/></clipPath></defs></symbol><symbol viewBox="0 0 20 21" fill="none" id="successIcon"><g clip-path="url(#clip0_263_5823)"><path d="M8.6 14.603l7.05-7.05-1.4-1.4-5.65 5.65-2.85-2.85-1.4 1.4 4.25 4.25zm1.4 5.4a9.731 9.731 0 01-3.9-.788 10.112 10.112 0 01-3.175-2.137c-.9-.9-1.612-1.958-2.137-3.175a9.755 9.755 0 01-.788-3.9 9.74 9.74 0 01.788-3.9 10.114 10.114 0 012.137-3.175c.9-.9 1.958-1.612 3.175-2.137A9.755 9.755 0 0110 .003a9.74 9.74 0 013.9.788 10.114 10.114 0 013.175 2.137c.9.9 1.613 1.959 2.138 3.175a9.72 9.72 0 01.787 3.9 9.732 9.732 0 01-.788 3.9 10.114 10.114 0 01-2.137 3.175c-.9.9-1.958 1.613-3.175 2.138a9.719 9.719 0 01-3.9.787z" fill="#0DA200"/></g><defs><clipPath id="clip0_263_5823"><path fill="#fff" transform="translate(0 .003)" d="M0 0h20v20H0z"/></clipPath></defs></symbol></svg>