<svg width="20" height="21" fill="none" xmlns="http://www.w3.org/2000/svg"><g clip-path="url(#clip0_263_5823)"><path d="M8.6 14.603l7.05-7.05-1.4-1.4-5.65 5.65-2.85-2.85-1.4 1.4 4.25 4.25zm1.4 5.4a9.731 9.731 0 01-3.9-.788 10.112 10.112 0 01-3.175-2.137c-.9-.9-1.612-1.958-2.137-3.175a9.755 9.755 0 01-.788-3.9 9.74 9.74 0 01.788-3.9 10.114 10.114 0 012.137-3.175c.9-.9 1.958-1.612 3.175-2.137A9.755 9.755 0 0110 .003a9.74 9.74 0 013.9.788 10.114 10.114 0 013.175 2.137c.9.9 1.613 1.959 2.138 3.175a9.72 9.72 0 01.787 3.9 9.732 9.732 0 01-.788 3.9 10.114 10.114 0 01-2.137 3.175c-.9.9-1.958 1.613-3.175 2.138a9.719 9.719 0 01-3.9.787z" fill="#0DA200"/></g><defs><clipPath id="clip0_263_5823"><path fill="#fff" transform="translate(0 .003)" d="M0 0h20v20H0z"/></clipPath></defs></svg>