<svg width="630" height="403" fill="none" xmlns="http://www.w3.org/2000/svg"><path d="M459.188 383.6l-.04.033-.033.041a58.453 58.453 0 00-6.444 10.034 20.697 20.697 0 01-9.202 7.293 20.725 20.725 0 01-11.465 1.161c-2.13-5.394-.318-11.274 1.564-17.383l.002-.006c1.884-6.114 3.839-12.462 1.286-18.324-.843-1.961-2.717-3.53-5.155-4.832-2.449-1.308-5.538-2.385-8.917-3.325-4.156-1.156-8.821-2.123-13.325-3.056-2.792-.578-5.522-1.144-8.032-1.734-3.301-.776-6.228-1.596-8.473-2.544-2.276-.962-3.719-2.004-4.236-3.148-.479-1.059-.233-2.405 1.454-4.222 1.685-1.815 4.706-3.976 9.438-6.567 3.265-1.681 8.164-2.938 14.299-4.401l2.066-.491c5.664-1.343 12.216-2.896 19.296-5.105 15.904-4.962 34.497-13.239 51.876-29.922 1.473-.616 2.677-1.041 3.647-1.298.996-.264 1.71-.341 2.199-.289.474.051.672.212.768.382.114.202.162.551.056 1.116-.212 1.126-.966 2.746-2.075 4.75-.843 1.524-1.867 3.23-2.965 5.059l-1.024 1.708c-2.943 4.932-6.158 10.561-7.555 15.597-.7 2.522-.958 4.941-.465 7.075.499 2.155 1.756 3.98 4.003 5.297l.014.008.015.008a23.792 23.792 0 009.478 2.483 78.605 78.605 0 0040.539-7.47h0c1.859-.897 3.936-1.828 5.922-2.207 1.969-.375 3.764-.19 5.169 1.027a6.276 6.276 0 01-.014 8.447 18.078 18.078 0 01-8.533 4.913l-.02.004-.019.007a171.411 171.411 0 01-32.572 7.591l-.476.063.044.478c.1 1.097.223 2.184.345 3.266.265 2.332.526 4.643.548 6.996l-36.466 17.64a24.249 24.249 0 00-6.522 3.847z" fill="url(#paint0_linear_1_123)" stroke="#C95600"/><mask id="path-2-inside-1_1_123" fill="#fff"><path d="M627.343 144.612a63.134 63.134 0 00-4.996-8.689 75.667 75.667 0 01-4.676-8.05 21.936 21.936 0 01-.449-21.723c.897-1.405 2.05-2.811 3.203-4.28 3.331-4.09 4.676-6.39 3.587-7.284a6.41 6.41 0 00-2.37-1.342 119.488 119.488 0 00-69.434-6.07l-11.209 2.556 8.263-7.986a6.413 6.413 0 00-4.868-1.597c-1.153 0-2.306.83-3.459 1.277a14.503 14.503 0 01-12.811.959 15.348 15.348 0 01-5.38-5.942c-1.345-2.108-2.242-3.386-3.267-3.514h-1.857c-1.809.6-3.764.6-5.573 0a9.148 9.148 0 01-4.356-4.792 9.333 9.333 0 00-.832-1.597 3.015 3.015 0 00-2.242-1.214 11.74 11.74 0 00-7.815 2.62l-2.626 2.044a22.115 22.115 0 01-12.81 6.39h-1.602l-1.025-1.279c-4.868-6.389-15.116-6.389-24.468-5.558l-3.203.32v-3.195c-.768-9.2-3.266-20.445-11.273-21.978a20.737 20.737 0 00-9.032 1.086l-2.69.639a49.958 49.958 0 01-19.216.575 16.425 16.425 0 01-7.698-2.5 16.38 16.38 0 01-5.561-5.87 18.052 18.052 0 01-1.089-8.817L395.79 3.16A79.1 79.1 0 00368.696.156c-3.139 0-6.405.639-9.352 1.086a224.038 224.038 0 00-29.016 6.39c.129.154.237.326.32.51l-5.893 2.492a8.993 8.993 0 00-1.409-2.172l-5.508.383a19.125 19.125 0 01-.897 10.159 18.215 18.215 0 01-6.493 8.285 18.291 18.291 0 01-20.179.575 18.225 18.225 0 01-6.956-7.902 13.613 13.613 0 00-6.405 0 77.563 77.563 0 011.601 33.223v1.278l-1.089.767c-14.156 10.094-32.667 10.414-47.527 10.67l-22.867.382a30.81 30.81 0 01-18.768-3.96 31.431 31.431 0 00-5.06-2.237 36.792 36.792 0 00-19.216.959 64.208 64.208 0 01-15.245 2.108 61.663 61.663 0 01-26.262-8.817c-2.754-1.47-5.444-2.875-8.199-4.089-9.351-4.217-22.738-6.39-29.656 1.406l-6.405 7.155.832-9.583s0-.639-.704-1.214a4.748 4.748 0 00-4.42-.383 18.553 18.553 0 00-5.957 5.877 38.885 38.885 0 01-1.985 2.556 36.208 36.208 0 01-20.626 12.203c-.056.36-.056.727 0 1.086a23.353 23.353 0 004.997 11.948c13.579 21.084 16.397 38.334 8.455 50.729a49.99 49.99 0 01-14.797 13.609 35.99 35.99 0 00-17.55 21.211l-5.445 13.609C14.033 197.897 6.859 215.914.838 234.123a10.198 10.198 0 00-.768 5.239c.512 1.853 2.69 3.322 6.405 4.6a141.908 141.908 0 0041.763 5.111 328.43 328.43 0 0076.863-9.136c4.228-1.023 8.776-2.556 10.249-5.75.4-.897.68-1.842.833-2.812a16.332 16.332 0 011.921-5.238 17.23 17.23 0 016.648-4.732 17.264 17.264 0 018.085-1.146h.96a81.998 81.998 0 0022.163-6.07 101.75 101.75 0 0120.689-6.389 34.339 34.339 0 0115.698 1.592 34.276 34.276 0 0113.318 8.439 18.5 18.5 0 015.188 12.778 40.312 40.312 0 0116.078 2.172 18.056 18.056 0 018.899 6.755 17.986 17.986 0 013.207 10.687 23.714 23.714 0 01-1.217 5.303 11.41 11.41 0 00-.833 5.558 12.084 12.084 0 003.587 4.601 157.982 157.982 0 0138.432 56.159l-1.922.767c4.036 2.3 7.687 6.389 12.363 6.389 10.312-.447 8.134-16.484 2.626-25.173l38.432-14.95a34.53 34.53 0 0110.633-22.554 39.931 39.931 0 017.453 23.5 39.923 39.923 0 01-7.774 23.396c1.474 7.986 13.9 6.006 20.113.703 6.213-5.303 14.668-12.139 21.33-7.411 2.754 1.98 3.971 5.303 6.405 7.858a13.27 13.27 0 008.41 4.576 13.289 13.289 0 009.306-2.271 13.224 13.224 0 005.343-7.931 13.196 13.196 0 00-1.409-9.452 21.241 21.241 0 0124.17-1.248 21.172 21.172 0 016.191 5.848 32.812 32.812 0 0013.23-12.986 32.715 32.715 0 004.065-18.065 13.856 13.856 0 0110.487 3.82 13.81 13.81 0 013.21 4.704 13.76 13.76 0 011.035 5.596c15.693 2.556 19.985-26.706 35.87-27.409 3.523 0 6.982 1.278 10.504.958 8.712-.766 12.811-10.669 17.487-17.889a47.257 47.257 0 0121.65-16.995 39.904 39.904 0 01-4.035-27.217l.384-1.853 1.793-.511a93.349 93.349 0 0039.842-25.237l2.626-2.811 2.306 3.131a1.22 1.22 0 001.409.511 10.13 10.13 0 003.959-2.44 10.092 10.092 0 002.446-3.949 31.168 31.168 0 00-1.601-20.637z"/></mask><path d="M627.343 144.612a63.134 63.134 0 00-4.996-8.689 75.667 75.667 0 01-4.676-8.05 21.936 21.936 0 01-.449-21.723c.897-1.405 2.05-2.811 3.203-4.28 3.331-4.09 4.676-6.39 3.587-7.284a6.41 6.41 0 00-2.37-1.342 119.488 119.488 0 00-69.434-6.07l-11.209 2.556 8.263-7.986a6.413 6.413 0 00-4.868-1.597c-1.153 0-2.306.83-3.459 1.277a14.503 14.503 0 01-12.811.959 15.348 15.348 0 01-5.38-5.942c-1.345-2.108-2.242-3.386-3.267-3.514h-1.857c-1.809.6-3.764.6-5.573 0a9.148 9.148 0 01-4.356-4.792 9.333 9.333 0 00-.832-1.597 3.015 3.015 0 00-2.242-1.214 11.74 11.74 0 00-7.815 2.62l-2.626 2.044a22.115 22.115 0 01-12.81 6.39h-1.602l-1.025-1.279c-4.868-6.389-15.116-6.389-24.468-5.558l-3.203.32v-3.195c-.768-9.2-3.266-20.445-11.273-21.978a20.737 20.737 0 00-9.032 1.086l-2.69.639a49.958 49.958 0 01-19.216.575 16.425 16.425 0 01-7.698-2.5 16.38 16.38 0 01-5.561-5.87 18.052 18.052 0 01-1.089-8.817L395.79 3.16A79.1 79.1 0 00368.696.156c-3.139 0-6.405.639-9.352 1.086a224.038 224.038 0 00-29.016 6.39c.129.154.237.326.32.51l-5.893 2.492a8.993 8.993 0 00-1.409-2.172l-5.508.383a19.125 19.125 0 01-.897 10.159 18.215 18.215 0 01-6.493 8.285 18.291 18.291 0 01-20.179.575 18.225 18.225 0 01-6.956-7.902 13.613 13.613 0 00-6.405 0 77.563 77.563 0 011.601 33.223v1.278l-1.089.767c-14.156 10.094-32.667 10.414-47.527 10.67l-22.867.382a30.81 30.81 0 01-18.768-3.96 31.431 31.431 0 00-5.06-2.237 36.792 36.792 0 00-19.216.959 64.208 64.208 0 01-15.245 2.108 61.663 61.663 0 01-26.262-8.817c-2.754-1.47-5.444-2.875-8.199-4.089-9.351-4.217-22.738-6.39-29.656 1.406l-6.405 7.155.832-9.583s0-.639-.704-1.214a4.748 4.748 0 00-4.42-.383 18.553 18.553 0 00-5.957 5.877 38.885 38.885 0 01-1.985 2.556 36.208 36.208 0 01-20.626 12.203c-.056.36-.056.727 0 1.086a23.353 23.353 0 004.997 11.948c13.579 21.084 16.397 38.334 8.455 50.729a49.99 49.99 0 01-14.797 13.609 35.99 35.99 0 00-17.55 21.211l-5.445 13.609C14.033 197.897 6.859 215.914.838 234.123a10.198 10.198 0 00-.768 5.239c.512 1.853 2.69 3.322 6.405 4.6a141.908 141.908 0 0041.763 5.111 328.43 328.43 0 0076.863-9.136c4.228-1.023 8.776-2.556 10.249-5.75.4-.897.68-1.842.833-2.812a16.332 16.332 0 011.921-5.238 17.23 17.23 0 016.648-4.732 17.264 17.264 0 018.085-1.146h.96a81.998 81.998 0 0022.163-6.07 101.75 101.75 0 0120.689-6.389 34.339 34.339 0 0115.698 1.592 34.276 34.276 0 0113.318 8.439 18.5 18.5 0 015.188 12.778 40.312 40.312 0 0116.078 2.172 18.056 18.056 0 018.899 6.755 17.986 17.986 0 013.207 10.687 23.714 23.714 0 01-1.217 5.303 11.41 11.41 0 00-.833 5.558 12.084 12.084 0 003.587 4.601 157.982 157.982 0 0138.432 56.159l-1.922.767c4.036 2.3 7.687 6.389 12.363 6.389 10.312-.447 8.134-16.484 2.626-25.173l38.432-14.95a34.53 34.53 0 0110.633-22.554 39.931 39.931 0 017.453 23.5 39.923 39.923 0 01-7.774 23.396c1.474 7.986 13.9 6.006 20.113.703 6.213-5.303 14.668-12.139 21.33-7.411 2.754 1.98 3.971 5.303 6.405 7.858a13.27 13.27 0 008.41 4.576 13.289 13.289 0 009.306-2.271 13.224 13.224 0 005.343-7.931 13.196 13.196 0 00-1.409-9.452 21.241 21.241 0 0124.17-1.248 21.172 21.172 0 016.191 5.848 32.812 32.812 0 0013.23-12.986 32.715 32.715 0 004.065-18.065 13.856 13.856 0 0110.487 3.82 13.81 13.81 0 013.21 4.704 13.76 13.76 0 011.035 5.596c15.693 2.556 19.985-26.706 35.87-27.409 3.523 0 6.982 1.278 10.504.958 8.712-.766 12.811-10.669 17.487-17.889a47.257 47.257 0 0121.65-16.995 39.904 39.904 0 01-4.035-27.217l.384-1.853 1.793-.511a93.349 93.349 0 0039.842-25.237l2.626-2.811 2.306 3.131a1.22 1.22 0 001.409.511 10.13 10.13 0 003.959-2.44 10.092 10.092 0 002.446-3.949 31.168 31.168 0 00-1.601-20.637z" fill="url(#paint1_linear_1_123)" stroke="#C95600" stroke-width="2" mask="url(#path-2-inside-1_1_123)"/><path d="M316 66a11.016 11.016 0 00-11 11c0 9.413 10 16.522 10.426 16.819a1.001 1.001 0 001.148 0C317 93.522 327 86.413 327 77a11.012 11.012 0 00-11-11zm0 7a4 4 0 110 8 4 4 0 010-8z" fill="#C95600"/><path d="M285.417 251.871a.736.736 0 01-.834 0c-.31-.213-7.583-5.29-7.583-12.014l8.417 12.014zm0 0c.31-.213 7.583-5.29 7.583-12.014l-7.583 12.014zm-7.917-12.013a7.294 7.294 0 012.196-5.197A7.58 7.58 0 01285 232.5a7.58 7.58 0 015.304 2.161 7.294 7.294 0 012.196 5.197c0 3.184-1.727 6.019-3.552 8.12-1.819 2.091-3.676 3.386-3.813 3.48l-.001.001a.24.24 0 01-.268 0l-.001-.001c-.137-.094-1.994-1.389-3.813-3.48-1.825-2.101-3.552-4.936-3.552-8.12zm9.391-2.794a3.449 3.449 0 00-4.298.416 3.32 3.32 0 00-.425 4.246c.375.552.908.981 1.53 1.234a3.457 3.457 0 001.965.19 3.423 3.423 0 001.744-.916 3.335 3.335 0 00.936-1.72 3.304 3.304 0 00-.195-1.944 3.362 3.362 0 00-1.257-1.506zM80.417 139.871a.737.737 0 01-.834 0c-.31-.213-7.583-5.29-7.583-12.014l8.417 12.014zm0 0c.31-.213 7.583-5.29 7.583-12.014l-7.583 12.014zM72.5 127.858a7.296 7.296 0 012.196-5.197A7.579 7.579 0 0180 120.5a7.579 7.579 0 015.304 2.161 7.295 7.295 0 012.196 5.197c0 3.184-1.727 6.019-3.552 8.12-1.819 2.091-3.676 3.386-3.813 3.48l-.001.001a.24.24 0 01-.268 0v-.001c-.138-.094-1.995-1.389-3.814-3.48-1.825-2.101-3.552-4.936-3.552-8.12zm9.39-2.794a3.445 3.445 0 00-4.297.416 3.321 3.321 0 00-.425 4.246c.375.552.908.981 1.53 1.234a3.457 3.457 0 001.965.19 3.425 3.425 0 001.744-.916 3.34 3.34 0 00.936-1.72 3.309 3.309 0 00-.195-1.944 3.362 3.362 0 00-1.257-1.506z" stroke="#C95600"/><path d="M299.623 107.781V122h-1.885v-14.219h1.885zm8.76 0l-6.172 7.823h-3.34l-.293-1.563h2.51l4.961-6.26h2.334zM306.488 122l-5.342-6.641 1.055-1.65 6.592 8.291h-2.305zm5.459-2.861l4.873-7.705h1.817V122h-1.817v-7.705L311.947 122h-1.797v-10.566h1.797v7.705zm11.543-7.705V122h-1.806v-10.566h1.806zm-4.013-2.803c0-.293.091-.541.273-.742.182-.202.446-.303.791-.303.352 0 .619.101.801.303.182.201.273.449.273.742 0 .28-.091.521-.273.723-.182.195-.449.292-.801.292-.345 0-.609-.097-.791-.292a1.043 1.043 0 01-.273-.723zm4.209.019c0-.293.087-.54.263-.742.183-.202.449-.303.801-.303.345 0 .609.101.791.303.189.202.283.449.283.742 0 .28-.094.521-.283.723-.182.195-.446.293-.791.293-.352 0-.618-.098-.801-.293a1.063 1.063 0 01-.263-.723zm7.773 8.702h-3.467l-.019-1.446h2.832c.56 0 1.025-.055 1.396-.166.378-.11.661-.276.85-.498.189-.221.283-.495.283-.82 0-.254-.055-.475-.166-.664a1.205 1.205 0 00-.479-.479 2.363 2.363 0 00-.8-.283 5.485 5.485 0 00-1.104-.098h-2.314V122h-1.807v-10.566h4.121c.671 0 1.273.058 1.807.175.54.118.999.297 1.377.537.384.235.677.534.879.899.201.365.302.794.302 1.289a2.17 2.17 0 01-.771 1.67 3.13 3.13 0 01-.938.547 4.812 4.812 0 01-1.279.263l-.703.538zm0 4.648h-4.121l.898-1.465h3.223c.501 0 .918-.062 1.25-.185.332-.131.579-.313.742-.547a1.46 1.46 0 00.254-.86c0-.332-.085-.615-.254-.849-.163-.241-.41-.423-.742-.547-.332-.13-.749-.195-1.25-.195h-2.744l.019-1.446h3.428l.654.547c.58.046 1.071.189 1.475.43.404.241.71.547.918.918.208.364.312.761.312 1.191 0 .495-.094.931-.283 1.309a2.496 2.496 0 01-.8.947 3.917 3.917 0 01-1.28.566 7.094 7.094 0 01-1.699.186z" fill="#C95600"/><defs><linearGradient id="paint0_linear_1_123" x1="545" y1="349" x2="425" y2="331" gradientUnits="userSpaceOnUse"><stop stop-color="#C95600" stop-opacity=".06"/><stop offset="1" stop-color="#1C1C1C"/></linearGradient><linearGradient id="paint1_linear_1_123" x1="315" y1="0" x2="315" y2="329" gradientUnits="userSpaceOnUse"><stop stop-color="#C95600" stop-opacity=".22"/><stop offset="1" stop-color="#272727" stop-opacity="0"/></linearGradient></defs></svg>