<svg width="232" height="46" fill="none" xmlns="http://www.w3.org/2000/svg"><g clip-path="url(#clip0_1_163)" fill="#ABABAB"><path fill-rule="evenodd" clip-rule="evenodd" d="M29.351 13.42a11.486 11.486 0 00-6.38-1.935V0A22.97 22.97 0 110 22.97h11.485a11.486 11.486 0 1017.866-9.55z"/><path fill-rule="evenodd" clip-rule="evenodd" d="M11.485 0A11.485 11.485 0 010 11.485V22.97A22.97 22.97 0 0022.97 0H11.485z"/><path d="M144.276 16.6h-5.573v17.7h5.573V16.6zm-4.953-3.316c.582.583 1.31.874 2.184.874.874 0 1.591-.29 2.149-.874.56-.607.839-1.335.839-2.185 0-.874-.279-1.603-.839-2.185-.558-.583-1.275-.874-2.149-.874-.874 0-1.602.29-2.184.874-.559.582-.839 1.31-.839 2.185 0 .85.28 1.578.839 2.185zM58.754 34.3V8.586h5.718v20.688h11.4V34.3H58.755z"/><path fill-rule="evenodd" clip-rule="evenodd" d="M86.17 34.7c-1.821 0-3.472-.4-4.954-1.201a9.354 9.354 0 01-3.46-3.351c-.85-1.408-1.275-2.987-1.275-4.735 0-1.748.425-3.314 1.275-4.698a9.166 9.166 0 013.46-3.278c1.457-.826 3.108-1.239 4.954-1.239 1.845 0 3.496.401 4.953 1.202a9.077 9.077 0 013.46 3.315c.85 1.384 1.275 2.95 1.275 4.698 0 1.748-.425 3.327-1.275 4.735a9.353 9.353 0 01-3.46 3.35c-1.457.802-3.108 1.203-4.953 1.203zm0-5.062c.801 0 1.505-.17 2.112-.51a3.57 3.57 0 001.384-1.493c.34-.656.51-1.396.51-2.222 0-.825-.17-1.542-.51-2.149a3.57 3.57 0 00-1.42-1.457c-.583-.364-1.275-.546-2.076-.546-.777 0-1.47.182-2.076.546a3.57 3.57 0 00-1.42 1.457c-.34.632-.51 1.36-.51 2.186 0 .8.17 1.53.51 2.185a3.82 3.82 0 001.42 1.493c.607.34 1.299.51 2.076.51zm14.102 11.582c1.481.68 3.193 1.02 5.136 1.02 1.894 0 3.581-.376 5.062-1.13 1.482-.752 2.647-1.796 3.497-3.131.85-1.336 1.275-2.914 1.275-4.735V16.599h-5.464v1.189a5.86 5.86 0 00-1.384-.861c-.947-.462-2.027-.693-3.241-.693-1.627 0-3.072.389-4.334 1.166-1.263.753-2.259 1.797-2.987 3.132-.729 1.311-1.093 2.793-1.093 4.444 0 1.627.364 3.108 1.093 4.443a8.331 8.331 0 002.987 3.17c1.262.776 2.707 1.165 4.334 1.165 1.19 0 2.27-.231 3.241-.692a6.464 6.464 0 001.275-.79v1.117c0 1.239-.4 2.198-1.202 2.878-.777.68-1.857 1.02-3.241 1.02-1.117 0-2.076-.195-2.878-.583-.777-.389-1.481-.96-2.112-1.712l-3.424 3.424c.85 1.214 2.003 2.149 3.46 2.804zm7.94-12.93c-.558.34-1.226.51-2.003.51-.777 0-1.457-.17-2.04-.51a3.599 3.599 0 01-1.311-1.384 4.121 4.121 0 01-.473-1.93c0-.729.157-1.384.473-1.967a3.517 3.517 0 011.348-1.384c.583-.34 1.25-.51 2.003-.51.777 0 1.445.17 2.003.51.583.34 1.02.801 1.311 1.384.316.583.474 1.238.474 1.967 0 .728-.158 1.384-.474 1.967a3.324 3.324 0 01-1.311 1.347zm18.757 6.41c-1.821 0-3.473-.4-4.953-1.201a9.349 9.349 0 01-3.461-3.351c-.85-1.408-1.275-2.987-1.275-4.735 0-1.748.425-3.314 1.275-4.698a9.16 9.16 0 013.461-3.278c1.456-.826 3.107-1.239 4.953-1.239 1.845 0 3.496.401 4.953 1.202a9.077 9.077 0 013.46 3.315c.85 1.384 1.275 2.95 1.275 4.698 0 1.748-.425 3.327-1.275 4.735a9.354 9.354 0 01-3.46 3.35c-1.457.802-3.108 1.203-4.953 1.203zm0-5.062c.801 0 1.505-.17 2.112-.51a3.572 3.572 0 001.384-1.493c.34-.656.51-1.396.51-2.222 0-.825-.17-1.542-.51-2.149a3.57 3.57 0 00-1.42-1.457c-.583-.364-1.275-.546-2.076-.546-.777 0-1.47.182-2.076.546a3.566 3.566 0 00-1.421 1.457c-.34.632-.51 1.36-.51 2.186 0 .8.17 1.53.51 2.185.34.631.813 1.129 1.421 1.493.606.34 1.299.51 2.076.51zm30.7 5.026c-1.188 0-2.282-.23-3.278-.692a6.96 6.96 0 01-1.419-.87v8.665h-5.5V16.599h5.572v1.222a6.894 6.894 0 011.347-.858c.996-.486 2.09-.728 3.278-.728 1.676 0 3.157.4 4.444 1.202a8.288 8.288 0 013.059 3.278c.754 1.384 1.129 2.962 1.129 4.735 0 1.772-.375 3.35-1.129 4.735a8.289 8.289 0 01-3.059 3.277c-1.287.802-2.768 1.202-4.444 1.202zm-1.019-5.026c.801 0 1.494-.182 2.076-.546a3.823 3.823 0 001.421-1.493c.34-.632.51-1.348.51-2.15 0-.825-.17-1.553-.51-2.185a3.573 3.573 0 00-1.421-1.457c-.582-.364-1.262-.546-2.04-.546-.776 0-1.469.182-2.075.546a3.635 3.635 0 00-1.384 1.457c-.34.632-.51 1.36-.51 2.186 0 .8.157 1.517.473 2.149.34.63.813 1.129 1.421 1.493a3.882 3.882 0 002.039.546z"/><path d="M171.756 34.337c1.02.267 2.051.4 3.095.4 2.21 0 3.958-.51 5.245-1.53 1.311-1.02 1.967-2.391 1.967-4.115 0-1.117-.206-2.016-.619-2.695a4.824 4.824 0 00-1.603-1.676 9.549 9.549 0 00-2.076-.983 31.967 31.967 0 00-2.076-.62c-.655-.17-1.189-.364-1.603-.582-.412-.219-.619-.51-.619-.874 0-.34.159-.595.473-.765.316-.194.789-.292 1.421-.292.656 0 1.323.134 2.003.401.704.267 1.336.729 1.894 1.384l3.169-3.205c-.801-1.02-1.845-1.785-3.132-2.295-1.263-.534-2.647-.801-4.152-.801-1.432 0-2.683.243-3.751.728-1.07.486-1.895 1.154-2.478 2.004-.582.825-.874 1.809-.874 2.95 0 1.068.207 1.955.619 2.659.413.68.948 1.214 1.603 1.602a9.289 9.289 0 002.076.91c.728.22 1.421.426 2.077.62.654.17 1.189.376 1.602.62.437.218.656.546.656.983 0 .34-.183.607-.547.8-.34.195-.837.292-1.493.292-.948 0-1.822-.17-2.622-.51a6.392 6.392 0 01-2.077-1.493l-3.168 3.205a9.869 9.869 0 002.185 1.749 12.39 12.39 0 002.805 1.129zm20.469.363c-1.627 0-3.071-.327-4.334-.983-1.239-.68-2.209-1.602-2.913-2.768-.706-1.19-1.057-2.55-1.057-4.08V16.6h5.572v10.198c0 .607.097 1.13.292 1.566a2.4 2.4 0 00.947 1.02c.413.243.91.364 1.493.364.825 0 1.481-.255 1.967-.765.486-.534.728-1.262.728-2.185V16.6h5.573v10.235c0 1.554-.352 2.925-1.057 4.115-.704 1.166-1.674 2.088-2.914 2.768-1.238.656-2.67.984-4.297.984zm16.61-18.101h-5.572v17.7h5.572V23.957c0-.607.122-1.117.364-1.53a2.662 2.662 0 011.057-.947 3.024 3.024 0 011.493-.364c.802 0 1.469.255 2.003.765.559.486.838 1.178.838 2.076V34.3h5.573V23.956c0-.607.122-1.117.364-1.53a2.649 2.649 0 011.057-.947c.436-.243.935-.364 1.493-.364.802 0 1.469.255 2.003.765.558.486.837 1.178.837 2.076V34.3h5.574V23.337c0-1.481-.316-2.744-.948-3.788a6.075 6.075 0 00-2.513-2.44c-1.044-.583-2.246-.875-3.606-.875-1.384 0-2.635.304-3.751.911a6.798 6.798 0 00-1.903 1.497 6.198 6.198 0 00-1.849-1.57c-.971-.558-2.076-.838-3.314-.838-1.311 0-2.488.28-3.532.838-.455.232-.868.51-1.24.835v-1.308z"/></g><defs><clipPath id="clip0_1_163"><path fill="#fff" d="M0 0h232v45.941H0z"/></clipPath></defs></svg>