<svg width="232" height="90" fill="none" xmlns="http://www.w3.org/2000/svg"><path d="M106.358 79.286h6.041V56.079h-6.041v23.207zm0-26.827h6.041V46.94h-6.041v5.52zm9.934 34.427h6.042V76.662h.089c1.288 1.99 3.376 3.302 6.574 3.302 5.864 0 9.863-4.75 9.863-12.26 0-7.237-3.865-12.259-9.907-12.259-3.11 0-5.242 1.493-6.708 3.529h-.133v-2.895h-5.82v30.807zm11.417-12.033c-3.598 0-5.509-2.76-5.509-6.967 0-4.162 1.511-7.465 5.287-7.465 3.732 0 5.242 3.077 5.242 7.465s-1.954 6.967-5.02 6.967zm23.203 5.111c5.686 0 9.596-2.805 9.596-7.464 0-5.429-4.221-6.514-8.041-7.329-3.243-.678-6.264-.86-6.264-2.85 0-1.673 1.555-2.578 3.909-2.578 2.577 0 4.132.905 4.398 3.393h5.465c-.445-4.66-3.776-7.69-9.774-7.69-5.197 0-9.285 2.397-9.285 7.418 0 5.067 3.999 6.198 8.086 7.012 3.109.633 5.997.86 5.997 3.076 0 1.629-1.51 2.67-4.176 2.67-2.71 0-4.576-1.177-4.975-3.846h-5.598c.356 4.931 4.043 8.188 10.662 8.188zm32.534-.678V56.079h-6.041v13.39c0 3.076-1.733 5.248-4.576 5.248-2.576 0-3.776-1.493-3.776-4.208V56.08h-5.997v15.47c0 5.067 2.843 8.37 7.907 8.37 3.199 0 4.976-1.222 6.531-3.349h.133v2.715h5.819zm3.908 0h6.042V65.805c0-3.076 1.644-5.067 4.087-5.067 2.222 0 3.51 1.357 3.51 3.981v14.567h6.042V65.805c0-3.076 1.555-5.067 4.087-5.067 2.221 0 3.509 1.357 3.509 3.981v14.567h6.042V63.679c0-5.067-2.71-8.234-7.508-8.234-2.887 0-5.286 1.538-6.841 4.072h-.089c-1.111-2.443-3.421-4.072-6.308-4.072-3.154 0-5.376 1.629-6.62 3.755h-.133v-3.12h-5.82v23.207zm-80.908-39.749h6.042V7.192h-6.042v32.345zm20.815.679c7.064 0 11.906-5.339 11.906-12.26 0-6.921-4.842-12.26-11.906-12.26-7.063 0-11.906 5.339-11.906 12.26 0 6.921 4.843 12.26 11.906 12.26zm0-4.705c-3.732 0-5.775-3.031-5.775-7.555 0-4.524 2.043-7.6 5.775-7.6 3.687 0 5.775 3.076 5.775 7.6 0 4.524-2.088 7.555-5.775 7.555zm24.754 11.943c3.376 0 6.308-.815 8.218-2.624 1.688-1.584 2.71-3.8 2.71-7.057V16.33h-5.819v2.443h-.089c-1.377-1.946-3.465-3.077-6.309-3.077-5.775 0-9.862 4.434-9.862 11.355 0 7.012 4.976 11.083 10.04 11.083 2.888 0 4.62-1.176 5.953-2.714h.133v2.533c0 3.167-1.643 4.84-5.064 4.84-2.799 0-4.087-1.13-4.576-2.578h-5.997c.622 4.524 4.442 7.239 10.662 7.239zm-.089-14.25c-3.11 0-5.153-2.308-5.153-6.243 0-3.89 2.043-6.334 5.109-6.334 3.642 0 5.419 2.895 5.419 6.288 0 3.438-1.554 6.288-5.375 6.288zm25.703 7.011c7.064 0 11.906-5.338 11.906-12.26 0-6.92-4.842-12.259-11.906-12.259-7.063 0-11.905 5.338-11.905 12.26 0 6.921 4.842 12.26 11.905 12.26zm0-4.704c-3.731 0-5.775-3.031-5.775-7.555 0-4.524 2.044-7.6 5.775-7.6 3.688 0 5.776 3.076 5.776 7.6 0 4.524-2.088 7.555-5.776 7.555zm17.202-4.841h26.121v-5.292h-26.121v5.293zm28.037 21.466c0-1.04.829-1.885 1.852-1.885h3.701c1.023 0 1.851.844 1.851 1.885s-.828 1.885-1.851 1.885h-3.701c-1.023 0-1.852-.844-1.852-1.885z" fill="#ABABAB"/><path fill-rule="evenodd" clip-rule="evenodd" d="M45.343 0c24.406 0 44.19 20.147 44.19 45S69.75 90 45.343 90 1.153 69.853 1.153 45 20.936 0 45.342 0zm-1.597 3.367c-5.042.723-9.842 4.848-13.568 11.747-1.081 2.001-2.056 4.212-2.907 6.6 5.067-1.297 10.633-2.062 16.475-2.18V3.367zm-20.21 19.427c1.057-3.377 2.35-6.485 3.843-9.248 1.847-3.42 4.04-6.373 6.51-8.642-13.432 3.973-24.02 14.754-27.92 28.431 2.227-2.515 5.128-4.747 8.486-6.628 2.713-1.52 5.765-2.837 9.082-3.913zm-1.06 3.803c-1.274 5.16-2.025 10.828-2.14 16.776H4.458c.71-5.133 4.76-10.022 11.536-13.816a45.722 45.722 0 016.48-2.96zm1.055 16.776c.131-6.491 1.049-12.585 2.567-17.97 5.288-1.546 11.273-2.48 17.648-2.615v7.026c-2.378 6.2-7.229 11.139-13.317 13.56H23.53zm-3.196 3.254H4.46c.71 5.133 4.76 10.021 11.536 13.816a45.722 45.722 0 006.48 2.96c-1.273-5.16-2.024-10.828-2.14-16.776zm5.763 17.97c-1.518-5.385-2.436-11.479-2.567-17.97h6.898c6.088 2.42 10.939 7.36 13.317 13.559v7.026c-6.375-.134-12.36-1.069-17.648-2.615zm-2.561 2.609c-3.317-1.077-6.369-2.393-9.082-3.913-3.358-1.88-6.259-4.113-8.486-6.628 3.9 13.677 14.488 24.458 27.92 28.43-2.47-2.268-4.663-5.221-6.51-8.642-1.492-2.762-2.786-5.87-3.842-9.247zm20.209 19.427c-5.042-.723-9.842-4.848-13.568-11.747-1.081-2.001-2.056-4.212-2.907-6.6 5.067 1.297 10.633 2.062 16.475 2.18v16.167zm13.052-1.537c2.47-2.269 4.662-5.222 6.51-8.643 1.491-2.762 2.784-5.87 3.841-9.247 3.317-1.077 6.369-2.393 9.082-3.913 3.358-1.88 6.259-4.113 8.486-6.628-3.9 13.677-14.488 24.458-27.92 28.43zm6.616-16.81c-.85 2.388-1.825 4.599-2.906 6.6-3.726 6.899-8.526 11.024-13.568 11.747V70.466c5.842-.118 11.407-.883 16.474-2.18zm4.797-4.883a45.722 45.722 0 006.48-2.96c6.775-3.794 10.826-8.683 11.536-13.816H70.35c-.115 5.948-.866 11.616-2.14 16.776zm-1.055-16.776c-.132 6.491-1.05 12.585-2.569 17.97-5.287 1.546-11.272 2.48-17.647 2.615v-7.021c2.377-6.202 7.229-11.143 13.319-13.565h6.897zm3.194-3.254h15.877c-.71-5.133-4.76-10.022-11.536-13.816a45.722 45.722 0 00-6.48-2.96c1.273 5.16 2.023 10.828 2.14 16.776zm-5.763-17.97c1.519 5.385 2.437 11.479 2.569 17.97h-6.897c-6.09-2.421-10.942-7.362-13.319-13.564v-7.021c6.375.134 12.36 1.069 17.647 2.615zm2.562-2.609c3.317 1.076 6.369 2.393 9.082 3.913 3.358 1.88 6.259 4.113 8.486 6.628-3.9-13.677-14.488-24.458-27.92-28.43 2.47 2.268 4.663 5.221 6.51 8.642 1.492 2.762 2.785 5.87 3.842 9.247zM46.94 3.367c5.042.723 9.842 4.848 13.568 11.747 1.081 2.001 2.056 4.212 2.906 6.6-5.067-1.297-10.633-2.062-16.474-2.18V3.367z" fill="#ABABAB"/></svg>