<svg width="20" height="21" viewBox="0 0 20 21" fill="none" xmlns="http://www.w3.org/2000/svg">
<g clip-path="url(#clip0_263_5825)">
<path d="M2.92984 17.0735C1.97473 16.151 1.21291 15.0476 0.688821 13.8275C0.164731 12.6075 -0.111131 11.2953 -0.122669 9.96751C-0.134207 8.63972 0.11881 7.32292 0.621618 6.09396C1.12443 4.86499 1.86696 3.74847 2.80589 2.80955C3.74481 1.87062 4.86133 1.12809 6.09029 0.62528C7.31926 0.122472 8.63605 -0.130545 9.96385 -0.119007C11.2916 -0.107469 12.6038 0.168393 13.8239 0.692483C15.0439 1.21657 16.1474 1.9784 17.0698 2.9335C18.8914 4.81952 19.8994 7.34554 19.8766 9.96751C19.8538 12.5895 18.8021 15.0976 16.948 16.9517C15.0939 18.8058 12.5858 19.8575 9.96385 19.8802C7.34188 19.903 4.81586 18.8951 2.92984 17.0735ZM11.3998 10.0035L14.2298 7.1735L12.8198 5.7635L9.99984 8.5935L7.16984 5.7635L5.75984 7.1735L8.58984 10.0035L5.75984 12.8335L7.16984 14.2435L9.99984 11.4135L12.8298 14.2435L14.2398 12.8335L11.4098 10.0035H11.3998Z" fill="#A80000"/>
</g>
<defs>
<clipPath id="clip0_263_5825">
<rect width="20" height="20" fill="white" transform="translate(0 0.00341797)"/>
</clipPath>
</defs>
</svg>
