<svg width="20" height="21" viewBox="0 0 20 21" fill="none" xmlns="http://www.w3.org/2000/svg">
<g clip-path="url(#clip0_263_5819)">
<path d="M10 20.0034C7.34784 20.0034 4.8043 18.9499 2.92893 17.0745C1.05357 15.1991 0 12.6556 0 10.0034C0 7.35125 1.05357 4.80771 2.92893 2.93235C4.8043 1.05699 7.34784 0.00341797 10 0.00341797C12.6522 0.00341797 15.1957 1.05699 17.0711 2.93235C18.9464 4.80771 20 7.35125 20 10.0034C20 12.6556 18.9464 15.1991 17.0711 17.0745C15.1957 18.9499 12.6522 20.0034 10 20.0034ZM15 9.00342H5V11.0034H15V9.00342Z" fill="#9F9F9F"/>
</g>
<defs>
<clipPath id="clip0_263_5819">
<rect width="20" height="20" fill="white" transform="translate(0 0.00341797)"/>
</clipPath>
</defs>
</svg>
