<svg width="20" height="21" viewBox="0 0 20 21" fill="none" xmlns="http://www.w3.org/2000/svg">
<g clip-path="url(#clip0_263_5823)">
<path d="M8.6 14.6034L15.65 7.55342L14.25 6.15342L8.6 11.8034L5.75 8.95342L4.35 10.3534L8.6 14.6034ZM10 20.0034C8.61667 20.0034 7.31667 19.7408 6.1 19.2154C4.88333 18.6901 3.825 17.9778 2.925 17.0784C2.025 16.1784 1.31267 15.1201 0.788 13.9034C0.263333 12.6868 0.000666667 11.3868 0 10.0034C0 8.62008 0.262667 7.32009 0.788 6.10342C1.31333 4.88675 2.02567 3.82842 2.925 2.92842C3.825 2.02842 4.88333 1.31608 6.1 0.791418C7.31667 0.266751 8.61667 0.00408464 10 0.00341797C11.3833 0.00341797 12.6833 0.266085 13.9 0.791418C15.1167 1.31675 16.175 2.02908 17.075 2.92842C17.975 3.82842 18.6877 4.88675 19.213 6.10342C19.7383 7.32009 20.0007 8.62008 20 10.0034C20 11.3868 19.7373 12.6868 19.212 13.9034C18.6867 15.1201 17.9743 16.1784 17.075 17.0784C16.175 17.9784 15.1167 18.6911 13.9 19.2164C12.6833 19.7418 11.3833 20.0041 10 20.0034Z" fill="#0DA200"/>
</g>
<defs>
<clipPath id="clip0_263_5823">
<rect width="20" height="20" fill="white" transform="translate(0 0.00341797)"/>
</clipPath>
</defs>
</svg>
