<svg width="232" height="90" viewBox="0 0 232 90" fill="none" xmlns="http://www.w3.org/2000/svg">
<path d="M106.358 79.2858H112.399V56.0786H106.358V79.2858ZM106.358 52.4595H112.399V46.9404H106.358V52.4595Z" fill="#ABABAB"/>
<path d="M116.292 86.8859H122.334V76.6621H122.423C123.711 78.6525 125.799 79.9645 128.997 79.9645C134.861 79.9645 138.86 75.2145 138.86 67.7049C138.86 60.4666 134.995 55.4453 128.953 55.4453C125.843 55.4453 123.711 56.9382 122.245 58.9738H122.112V56.0787H116.292V86.8859ZM127.709 74.8525C124.111 74.8525 122.2 72.0931 122.2 67.8858C122.2 63.724 123.711 60.4214 127.487 60.4214C131.219 60.4214 132.729 63.4976 132.729 67.8858C132.729 72.274 130.775 74.8525 127.709 74.8525Z" fill="#ABABAB"/>
<path d="M150.912 79.9643C156.598 79.9643 160.508 77.1595 160.508 72.5C160.508 67.0714 156.287 65.9858 152.467 65.1715C149.224 64.4929 146.203 64.3118 146.203 62.3214C146.203 60.6476 147.758 59.7427 150.112 59.7427C152.689 59.7427 154.244 60.6476 154.51 63.1357H159.975C159.53 58.4762 156.199 55.4452 150.201 55.4452C145.004 55.4452 140.916 57.8428 140.916 62.8641C140.916 67.9309 144.915 69.062 149.002 69.8762C152.111 70.5094 154.999 70.7357 154.999 72.9524C154.999 74.581 153.489 75.6214 150.823 75.6214C148.113 75.6214 146.247 74.4453 145.848 71.7761H140.25C140.606 76.7072 144.293 79.9643 150.912 79.9643Z" fill="#ABABAB"/>
<path d="M183.446 79.2858V56.0786H177.405V69.469C177.405 72.5452 175.672 74.7167 172.829 74.7167C170.253 74.7167 169.053 73.2238 169.053 70.5094V56.0786H163.056V71.5501C163.056 76.6166 165.899 79.9192 170.963 79.9192C174.162 79.9192 175.939 78.6976 177.494 76.5714H177.627V79.2858H183.446Z" fill="#ABABAB"/>
<path d="M187.354 79.2859H193.396V65.8048C193.396 62.7286 195.04 60.7382 197.483 60.7382C199.705 60.7382 200.993 62.0952 200.993 64.7191V79.2859H207.035V65.8048C207.035 62.7286 208.59 60.7382 211.122 60.7382C213.343 60.7382 214.631 62.0952 214.631 64.7191V79.2859H220.673V63.6787C220.673 58.612 217.963 55.4453 213.165 55.4453C210.278 55.4453 207.879 56.9834 206.324 59.5167H206.235C205.124 57.0739 202.814 55.4453 199.927 55.4453C196.773 55.4453 194.551 57.0739 193.307 59.2001H193.174V56.0787H187.354V79.2859Z" fill="#ABABAB"/>
<path d="M106.446 39.537H112.488V7.19165H106.446V39.537Z" fill="#ABABAB"/>
<path d="M127.261 40.2157C134.325 40.2157 139.167 34.8775 139.167 27.9561C139.167 21.0346 134.325 15.6965 127.261 15.6965C120.198 15.6965 115.355 21.0346 115.355 27.9561C115.355 34.8775 120.198 40.2157 127.261 40.2157ZM127.261 35.5109C123.529 35.5109 121.486 32.4799 121.486 27.9561C121.486 23.4322 123.529 20.3561 127.261 20.3561C130.948 20.3561 133.036 23.4322 133.036 27.9561C133.036 32.4799 130.948 35.5109 127.261 35.5109Z" fill="#ABABAB"/>
<path d="M152.015 47.4537C155.391 47.4537 158.323 46.6394 160.233 44.8297C161.921 43.2464 162.943 41.0297 162.943 37.7726V16.3296H157.124V18.7725H157.035C155.658 16.8272 153.57 15.6963 150.726 15.6963C144.951 15.6963 140.864 20.1296 140.864 27.0511C140.864 34.063 145.84 38.1344 150.904 38.1344C153.792 38.1344 155.524 36.9583 156.857 35.4202H156.99V37.9535C156.99 41.1201 155.347 42.7939 151.926 42.7939C149.127 42.7939 147.839 41.6631 147.35 40.2154H141.353C141.975 44.7393 145.795 47.4537 152.015 47.4537ZM151.926 33.2035C148.816 33.2035 146.773 30.8964 146.773 26.9607C146.773 23.0702 148.816 20.6273 151.882 20.6273C155.524 20.6273 157.301 23.5224 157.301 26.9154C157.301 30.3534 155.747 33.2035 151.926 33.2035Z" fill="#ABABAB"/>
<path d="M177.629 40.2154C184.693 40.2154 189.535 34.8773 189.535 27.9558C189.535 21.0344 184.693 15.6963 177.629 15.6963C170.566 15.6963 165.724 21.0344 165.724 27.9558C165.724 34.8773 170.566 40.2154 177.629 40.2154ZM177.629 35.5107C173.898 35.5107 171.854 32.4797 171.854 27.9558C171.854 23.432 173.898 20.3558 177.629 20.3558C181.317 20.3558 183.405 23.432 183.405 27.9558C183.405 32.4797 181.317 35.5107 177.629 35.5107Z" fill="#ABABAB"/>
<path d="M194.831 30.6705H220.952V25.3776H194.831V30.6705Z" fill="#ABABAB"/>
<path d="M222.868 52.1363C222.868 51.0952 223.697 50.2512 224.72 50.2512H228.421C229.444 50.2512 230.272 51.0952 230.272 52.1363C230.272 53.1771 229.444 54.0211 228.421 54.0211H224.72C223.697 54.0211 222.868 53.1771 222.868 52.1363Z" fill="#ABABAB"/>
<path fill-rule="evenodd" clip-rule="evenodd" d="M45.3429 0C69.7487 0 89.5334 20.1472 89.5334 45C89.5334 69.8528 69.7487 90 45.3429 90C20.9372 90 1.15247 69.8528 1.15247 45C1.15247 20.1472 20.9372 0 45.3429 0ZM43.7457 3.36733C38.7044 4.0898 33.904 8.21493 30.1776 15.1142C29.0967 17.1154 28.1215 19.3263 27.2715 21.7135C32.3383 20.4169 37.9043 19.6524 43.7457 19.5342V3.36733ZM23.5367 22.7943C24.5935 19.4166 25.8865 16.3089 27.3786 13.5465C29.2258 10.1263 31.4181 7.17289 33.8881 4.90448C20.4566 8.87677 9.86953 19.6578 5.96873 33.3353C8.1963 30.82 11.0966 28.5876 14.4552 26.7066C17.168 25.1872 20.2197 23.8705 23.5367 22.7943ZM22.4752 26.5975C21.202 31.7572 20.4514 37.4251 20.3353 43.3735H4.4592C5.1687 38.2396 9.21962 33.3513 15.9947 29.5569C17.9599 28.4562 20.1311 27.4631 22.4752 26.5975ZM23.5305 43.3735C23.6624 36.882 24.58 30.7877 26.0984 25.403C31.3863 23.8568 37.3712 22.9221 43.7457 22.7878V29.8143C41.3676 36.014 36.5172 40.9527 30.4289 43.3735H23.5305ZM20.3353 46.6265H4.4592C5.1687 51.7604 9.21962 56.6485 15.9947 60.4431C17.9599 61.5438 20.1311 62.5369 22.4752 63.4025C21.202 58.2428 20.4514 52.5749 20.3353 46.6265ZM26.0984 64.5971C24.58 59.2124 23.6624 53.118 23.5305 46.6265H30.4289C36.5172 49.0473 41.3678 53.9861 43.7457 60.1857V67.2122C37.3712 67.0779 31.3863 66.1433 26.0984 64.5971ZM23.5367 67.2057C20.2197 66.1295 17.168 64.8128 14.4552 63.2934C11.0966 61.4124 8.1963 59.1799 5.96873 56.6647C9.86953 70.3422 20.4566 81.1233 33.8881 85.0955C31.4181 82.827 29.2258 79.8737 27.3786 76.4534C25.8865 73.6911 24.5935 70.5834 23.5367 67.2057ZM43.7457 86.6326C38.7044 85.9102 33.904 81.785 30.1776 74.8859C29.0967 72.8847 28.1215 70.6736 27.2715 68.2866C32.3383 69.583 37.9043 70.3476 43.7457 70.4657V86.6326ZM56.7978 85.0955C59.2678 82.827 61.4601 79.8737 63.3075 76.4534C64.7993 73.6911 66.0923 70.5834 67.1492 67.2057C70.4661 66.1295 73.5179 64.8128 76.2307 63.2934C79.5892 61.4124 82.4897 59.1799 84.7171 56.6647C80.8164 70.3422 70.2292 81.1233 56.7978 85.0955ZM63.4144 68.2866C62.5644 70.6736 61.5891 72.8847 60.5082 74.8859C56.7821 81.785 51.9817 85.9102 46.9402 86.6326V70.4657C52.7815 70.3476 58.3475 69.583 63.4144 68.2866ZM68.2106 63.4025C70.5547 62.5369 72.726 61.5438 74.6912 60.4431C81.4662 56.6485 85.5172 51.7604 86.2266 46.6265H70.3505C70.2345 52.5749 69.4837 58.2428 68.2106 63.4025ZM67.1556 46.6265C67.0237 53.118 66.1058 59.2124 64.5874 64.5971C59.2996 66.1433 53.3149 67.0779 46.9402 67.2122V60.1909C49.3174 53.989 54.1689 49.048 60.259 46.6265H67.1556ZM70.3505 43.3735H86.2266C85.5172 38.2396 81.4662 33.3513 74.6912 29.5569C72.726 28.4562 70.5547 27.4631 68.2106 26.5975C69.4837 31.7572 70.2345 37.4251 70.3505 43.3735ZM64.5874 25.403C66.1058 30.7877 67.0237 36.882 67.1556 43.3735H60.259C54.1689 40.952 49.3174 36.011 46.9402 29.8091V22.7878C53.3149 22.9221 59.2996 23.8568 64.5874 25.403ZM67.1492 22.7943C70.4661 23.8705 73.5179 25.1872 76.2307 26.7066C79.5892 28.5876 82.4897 30.82 84.7171 33.3353C80.8164 19.6578 70.2292 8.87677 56.7978 4.90448C59.2678 7.17289 61.4601 10.1263 63.3075 13.5465C64.7993 16.3089 66.0923 19.4166 67.1492 22.7943ZM46.9402 3.36733C51.9817 4.0898 56.7821 8.21493 60.5082 15.1142C61.5891 17.1154 62.5644 19.3263 63.4144 21.7135C58.3475 20.4169 52.7815 19.6524 46.9402 19.5342V3.36733Z" fill="#ABABAB"/>
</svg>
