<svg width="232" height="46" viewBox="0 0 232 46" fill="none" xmlns="http://www.w3.org/2000/svg">
<g clip-path="url(#clip0_1_163)">
<path fill-rule="evenodd" clip-rule="evenodd" d="M29.3511 13.4207C27.4624 12.1588 25.2418 11.4851 22.9703 11.4851V0C27.5134 0 31.9544 1.34719 35.7319 3.8712C39.5094 6.39519 42.4535 9.98267 44.1921 14.1799C45.9306 18.3772 46.3855 22.9958 45.4992 27.4516C44.6129 31.9074 42.4252 36.0003 39.2127 39.2127C36.0003 42.4252 31.9074 44.6129 27.4516 45.4992C22.9958 46.3855 18.3772 45.9306 14.1799 44.1921C9.98266 42.4535 6.39519 39.5094 3.8712 35.7319C1.34719 31.9544 0 27.5134 0 22.9703H11.4851C11.4851 25.2418 12.1588 27.4624 13.4207 29.3511C14.6827 31.2398 16.4765 32.7119 18.5752 33.5812C20.6737 34.4505 22.983 34.6779 25.2109 34.2347C27.4388 33.7916 29.4852 32.6978 31.0916 31.0916C32.6978 29.4852 33.7916 27.4388 34.2347 25.2109C34.6779 22.983 34.4505 20.6737 33.5812 18.5752C32.7119 16.4765 31.2398 14.6827 29.3511 13.4207Z" fill="#ABABAB"/>
<path fill-rule="evenodd" clip-rule="evenodd" d="M11.4851 6.06982e-06C11.4851 1.50826 11.1881 3.00174 10.6109 4.39519C10.0337 5.78862 9.18772 7.05473 8.12122 8.12123C7.05473 9.18773 5.78862 10.0337 4.39518 10.6109C3.00173 11.1881 1.50825 11.4852 5.02027e-07 11.4852L0 22.9703C3.0165 22.9703 6.00346 22.3762 8.79036 21.2218C11.5773 20.0674 14.1095 18.3754 16.2424 16.2424C18.3754 14.1095 20.0674 11.5773 21.2218 8.79036C22.3762 6.00346 22.9703 3.0165 22.9703 0L11.4851 6.06982e-06Z" fill="#ABABAB"/>
<path d="M144.276 16.5991H138.703V34.3004H144.276V16.5991Z" fill="#ABABAB"/>
<path d="M139.323 13.2844C139.905 13.8671 140.633 14.1585 141.507 14.1585C142.381 14.1585 143.098 13.8671 143.656 13.2844C144.216 12.6774 144.495 11.9489 144.495 11.099C144.495 10.2249 144.216 9.49643 143.656 8.9137C143.098 8.33092 142.381 8.03955 141.507 8.03955C140.633 8.03955 139.905 8.33092 139.323 8.9137C138.764 9.49643 138.484 10.2249 138.484 11.099C138.484 11.9489 138.764 12.6774 139.323 13.2844Z" fill="#ABABAB"/>
<path d="M58.7539 34.3002V8.58594H64.4722V29.2739H75.8725V34.3002H58.7539Z" fill="#ABABAB"/>
<path fill-rule="evenodd" clip-rule="evenodd" d="M86.1697 34.7008C84.3486 34.7008 82.6975 34.3002 81.2163 33.4989C79.7594 32.6733 78.6061 31.5564 77.7562 30.148C76.9064 28.7397 76.4814 27.1614 76.4814 25.4131C76.4814 23.6649 76.9064 22.0987 77.7562 20.7147C78.6061 19.3306 79.7594 18.2379 81.2163 17.4367C82.6732 16.611 84.3244 16.1982 86.1697 16.1982C88.0152 16.1982 89.6663 16.599 91.1232 17.4002C92.5801 18.2015 93.7335 19.3064 94.5833 20.7147C95.4332 22.0987 95.8581 23.6649 95.8581 25.4131C95.8581 27.1614 95.4332 28.7397 94.5833 30.148C93.7335 31.5564 92.5801 32.6733 91.1232 33.4989C89.6663 34.3002 88.0152 34.7008 86.1697 34.7008ZM86.1697 29.6382C86.9711 29.6382 87.6752 29.4682 88.2823 29.1282C88.8893 28.764 89.3507 28.2663 89.6663 27.6349C90.0062 26.9794 90.1762 26.2387 90.1762 25.4131C90.1762 24.5876 90.0062 23.8712 89.6663 23.2643C89.3263 22.6329 88.8529 22.1473 88.2458 21.8074C87.663 21.4431 86.9711 21.261 86.1697 21.261C85.3928 21.261 84.7008 21.4431 84.0937 21.8074C83.4867 22.1473 83.0132 22.6329 82.6732 23.2643C82.3332 23.8956 82.1634 24.624 82.1634 25.4495C82.1634 26.2508 82.3332 26.9794 82.6732 27.6349C83.0132 28.2663 83.4867 28.764 84.0937 29.1282C84.7008 29.4682 85.3928 29.6382 86.1697 29.6382Z" fill="#ABABAB"/>
<path fill-rule="evenodd" clip-rule="evenodd" d="M100.272 41.2202C101.753 41.9 103.465 42.24 105.408 42.24C107.302 42.24 108.989 41.8636 110.47 41.1109C111.952 40.3581 113.117 39.3141 113.967 37.9786C114.817 36.6431 115.242 35.0649 115.242 33.2437V16.5987H109.778V17.788C109.372 17.4459 108.911 17.1588 108.394 16.9265C107.447 16.4651 106.367 16.2344 105.153 16.2344C103.526 16.2344 102.081 16.6229 100.819 17.3999C99.5558 18.1526 98.5603 19.1967 97.8318 20.5322C97.1033 21.8435 96.7393 23.3246 96.7393 24.9758C96.7393 26.6027 97.1033 28.0838 97.8318 29.4193C98.5603 30.7548 99.5558 31.8111 100.819 32.5881C102.081 33.365 103.526 33.7536 105.153 33.7536C106.343 33.7536 107.423 33.523 108.394 33.0616C108.865 32.8381 109.29 32.5748 109.669 32.2714V33.3894C109.669 34.6277 109.269 35.5868 108.467 36.2668C107.69 36.9467 106.61 37.2865 105.226 37.2865C104.109 37.2865 103.15 37.0923 102.348 36.7038C101.571 36.3154 100.867 35.7447 100.236 34.9919L96.8121 38.4156C97.6619 39.6297 98.8153 40.5646 100.272 41.2202ZM108.212 28.2902C107.654 28.6302 106.986 28.8002 106.209 28.8002C105.432 28.8002 104.752 28.6302 104.169 28.2902C103.611 27.9503 103.174 27.4889 102.858 26.9061C102.542 26.2992 102.385 25.6556 102.385 24.9758C102.385 24.2473 102.542 23.5918 102.858 23.009C103.174 22.4262 103.623 21.9649 104.206 21.6249C104.789 21.285 105.456 21.115 106.209 21.115C106.986 21.115 107.654 21.285 108.212 21.6249C108.795 21.9649 109.232 22.4262 109.523 23.009C109.839 23.5918 109.997 24.2473 109.997 24.9758C109.997 25.7042 109.839 26.3598 109.523 26.9426C109.232 27.5011 108.795 27.9503 108.212 28.2902Z" fill="#ABABAB"/>
<path fill-rule="evenodd" clip-rule="evenodd" d="M126.969 34.7008C125.148 34.7008 123.496 34.3002 122.016 33.4989C120.558 32.6733 119.405 31.5564 118.555 30.148C117.705 28.7397 117.28 27.1614 117.28 25.4131C117.28 23.6649 117.705 22.0987 118.555 20.7147C119.405 19.3306 120.558 18.2379 122.016 17.4367C123.472 16.611 125.123 16.1982 126.969 16.1982C128.814 16.1982 130.465 16.599 131.922 17.4002C133.379 18.2015 134.532 19.3064 135.382 20.7147C136.232 22.0987 136.657 23.6649 136.657 25.4131C136.657 27.1614 136.232 28.7397 135.382 30.148C134.532 31.5564 133.379 32.6733 131.922 33.4989C130.465 34.3002 128.814 34.7008 126.969 34.7008ZM126.969 29.6382C127.77 29.6382 128.474 29.4682 129.081 29.1282C129.688 28.764 130.149 28.2663 130.465 27.6349C130.805 26.9794 130.975 26.2387 130.975 25.4131C130.975 24.5876 130.805 23.8712 130.465 23.2643C130.125 22.6329 129.652 22.1473 129.045 21.8074C128.462 21.4431 127.77 21.261 126.969 21.261C126.192 21.261 125.499 21.4431 124.893 21.8074C124.285 22.1473 123.812 22.6329 123.472 23.2643C123.132 23.8956 122.962 24.624 122.962 25.4495C122.962 26.2508 123.132 26.9794 123.472 27.6349C123.812 28.2663 124.285 28.764 124.893 29.1282C125.499 29.4682 126.192 29.6382 126.969 29.6382Z" fill="#ABABAB"/>
<path fill-rule="evenodd" clip-rule="evenodd" d="M157.669 34.6644C156.481 34.6644 155.387 34.4338 154.391 33.9724C153.868 33.7296 153.394 33.4397 152.972 33.1027V41.7668H147.472V16.5989H153.044V17.8206C153.448 17.4899 153.898 17.2041 154.391 16.9631C155.387 16.4774 156.481 16.2346 157.669 16.2346C159.345 16.2346 160.826 16.6353 162.113 17.4367C163.424 18.2379 164.444 19.3306 165.172 20.7146C165.926 22.0987 166.301 23.677 166.301 25.4495C166.301 27.2221 165.926 28.8004 165.172 30.1845C164.444 31.5686 163.424 32.6611 162.113 33.4625C160.826 34.2638 159.345 34.6644 157.669 34.6644ZM156.65 29.6381C157.451 29.6381 158.144 29.456 158.726 29.0918C159.333 28.7276 159.807 28.2297 160.147 27.5985C160.487 26.9671 160.657 26.2508 160.657 25.4495C160.657 24.6239 160.487 23.8956 160.147 23.2642C159.807 22.6329 159.333 22.1473 158.726 21.8073C158.144 21.443 157.464 21.261 156.686 21.261C155.91 21.261 155.217 21.443 154.611 21.8073C154.027 22.1473 153.567 22.6329 153.227 23.2642C152.887 23.8956 152.717 24.6239 152.717 25.4495C152.717 26.2508 152.874 26.9671 153.19 27.5985C153.53 28.2297 154.003 28.7276 154.611 29.0918C155.217 29.456 155.897 29.6381 156.65 29.6381Z" fill="#ABABAB"/>
<path d="M171.756 34.3366C172.776 34.6037 173.807 34.7372 174.851 34.7372C177.061 34.7372 178.809 34.2274 180.096 33.2075C181.407 32.1877 182.063 30.8158 182.063 29.0918C182.063 27.9749 181.857 27.0764 181.444 26.3966C181.031 25.6924 180.497 25.1339 179.841 24.7211C179.186 24.3083 178.493 23.9804 177.765 23.7376C177.037 23.4948 176.344 23.2885 175.689 23.1185C175.034 22.9485 174.5 22.7543 174.086 22.5357C173.674 22.3172 173.467 22.0258 173.467 21.6616C173.467 21.3216 173.626 21.0667 173.94 20.8967C174.256 20.7025 174.729 20.6054 175.361 20.6054C176.017 20.6054 176.684 20.7389 177.364 21.006C178.068 21.273 178.7 21.7345 179.258 22.3901L182.427 19.1849C181.626 18.165 180.582 17.4001 179.295 16.8903C178.032 16.3561 176.648 16.089 175.143 16.089C173.711 16.089 172.46 16.3318 171.392 16.8174C170.322 17.3031 169.497 17.9708 168.914 18.8206C168.332 19.6462 168.04 20.6296 168.04 21.7709C168.04 22.8393 168.247 23.7256 168.659 24.4297C169.072 25.1095 169.607 25.6438 170.262 26.0323C170.917 26.4208 171.61 26.7244 172.338 26.9428C173.066 27.1614 173.759 27.3677 174.415 27.5621C175.069 27.7321 175.604 27.9384 176.017 28.1812C176.454 28.3998 176.673 28.7276 176.673 29.1646C176.673 29.5046 176.49 29.7716 176.126 29.9659C175.786 30.1601 175.289 30.2573 174.633 30.2573C173.685 30.2573 172.811 30.0873 172.011 29.7474C171.209 29.3832 170.517 28.8854 169.934 28.2541L166.766 31.4592C167.373 32.1148 168.101 32.6977 168.951 33.2075C169.825 33.6931 170.76 34.0694 171.756 34.3366Z" fill="#ABABAB"/>
<path d="M192.225 34.7007C190.598 34.7007 189.154 34.3729 187.891 33.7174C186.652 33.0375 185.682 32.1147 184.978 30.9492C184.272 29.7595 183.921 28.3997 183.921 26.8699V16.5989H189.493V26.7971C189.493 27.4041 189.59 27.9262 189.785 28.3632C190.003 28.8004 190.319 29.1403 190.732 29.3831C191.145 29.6259 191.642 29.7473 192.225 29.7473C193.05 29.7473 193.706 29.4923 194.192 28.9824C194.678 28.4482 194.92 27.7198 194.92 26.7971V16.5989H200.493V26.8335C200.493 28.3876 200.141 29.7595 199.436 30.9492C198.732 32.1147 197.762 33.0375 196.522 33.7174C195.284 34.3729 193.852 34.7007 192.225 34.7007Z" fill="#ABABAB"/>
<path d="M208.835 16.5987H203.263V34.2999H208.835V23.956C208.835 23.349 208.957 22.839 209.199 22.4262C209.467 22.0135 209.82 21.6977 210.256 21.4793C210.694 21.2364 211.191 21.115 211.749 21.115C212.551 21.115 213.218 21.37 213.752 21.8799C214.311 22.3655 214.59 23.0576 214.59 23.956V34.2999H220.163V23.956C220.163 23.349 220.285 22.839 220.527 22.4262C220.795 22.0135 221.146 21.6977 221.584 21.4793C222.02 21.2364 222.519 21.115 223.077 21.115C223.879 21.115 224.546 21.37 225.08 21.8799C225.638 22.3655 225.917 23.0576 225.917 23.956V34.2999H231.491V23.3368C231.491 21.8557 231.175 20.593 230.543 19.5489C229.936 18.4804 229.099 17.667 228.03 17.1086C226.986 16.5258 225.784 16.2344 224.424 16.2344C223.04 16.2344 221.789 16.5379 220.673 17.145C219.947 17.5317 219.313 18.0309 218.77 18.6424C218.263 18.0027 217.648 17.4794 216.921 17.0721C215.95 16.5137 214.845 16.2344 213.607 16.2344C212.296 16.2344 211.119 16.5137 210.075 17.0721C209.62 17.3044 209.207 17.5827 208.835 17.907V16.5987Z" fill="#ABABAB"/>
</g>
<defs>
<clipPath id="clip0_1_163">
<rect width="232" height="45.9406" fill="white"/>
</clipPath>
</defs>
</svg>
